<?xml version="1.0" encoding="UTF-8" standalone="no"?>
<!-- Created with Inkscape (http://www.inkscape.org/) -->

<svg
   width="64.622581mm"
   height="77.240768mm"
   viewBox="0 0 64.622581 77.240768"
   version="1.1"
   id="svg1"
   xml:space="preserve"
   xmlns="http://www.w3.org/2000/svg"
   xmlns:svg="http://www.w3.org/2000/svg"><defs
     id="defs1" /><g
     id="layer1"
     transform="translate(-39.957736,-103.02701)"><g
       id="g55"
       transform="translate(-65.379207,0.73874811)"><g
         id="g12"><path
           style="opacity:1;fill:#ffebdb;fill-opacity:1;stroke:none;stroke-width:0.476;stroke-linecap:round;stroke-dasharray:none"
           d="m 110.26595,105.56091 c -0.16803,0.57133 -0.50411,1.71398 -0.64974,2.99108 -0.14563,1.2771 -0.10082,2.68858 0.056,4.26814 0.15683,1.57957 0.42568,3.32712 0.72815,4.73865 0.30247,1.41152 0.63854,2.48693 1.17627,3.70801 0.53773,1.22109 1.27708,2.58777 1.7924,3.53998 0.51531,0.95222 0.80657,1.48992 1.10904,2.08366 0.30247,0.59374 0.61613,1.24347 1.05303,2.18449 0.4369,0.94102 0.99702,2.17327 1.53474,3.36074 0.53772,1.18747 1.05302,2.3301 1.53474,3.22631 0.48171,0.8962 0.9298,1.54593 1.3667,2.28531 0.4369,0.73937 0.86259,1.56833 1.14265,2.16207 0.28006,0.59373 0.41449,0.9522 0.48171,1.34429 0.0672,0.39209 0.0672,0.81778 0.056,1.3443 -0.0112,0.52653 -0.0336,1.15385 -0.0969,1.77214 -0.0633,0.61829 -0.16746,1.22751 -0.37719,2.10789 -0.20974,0.88038 -0.52503,2.03187 -0.90202,3.11486 -0.37699,1.08298 -0.81565,2.09739 -1.27489,3.06385 -0.45924,0.96645 -0.93903,1.8849 -2.11798,3.84525 -1.17895,1.96035 -3.05698,4.96245 -4.46896,7.16954 -1.41199,2.20708 -2.35785,3.61902 -3.05699,4.75684 -0.69914,1.13781 -1.15151,2.00143 -1.55591,2.91991 -0.40441,0.91848 -0.76082,1.89176 -1.10354,2.80339 -0.34272,0.91162 -0.67172,1.76153 -0.90476,2.54978 -0.23305,0.78824 -0.37013,1.51478 -0.42495,1.93974 -0.0548,0.42496 -0.0274,0.54833 0.10506,0.61467 0.13245,0.0663 0.36993,0.0756 10.33643,0.0728 9.9665,-0.003 29.66125,-0.0178 39.50882,-0.0551 9.84756,-0.0373 9.84756,-0.0971 9.92969,-0.39571 0.0821,-0.29865 0.24637,-0.83619 0.38076,-1.56786 0.13439,-0.73167 0.23891,-1.65742 0.3285,-2.7176 0.0896,-1.06017 0.16425,-2.2547 0.21651,-3.43433 0.0523,-1.17963 0.0821,-2.34429 0.0373,-3.62098 -0.0448,-1.27669 -0.16425,-2.66532 -0.31357,-3.68069 -0.14932,-1.01538 -0.3285,-1.65744 -0.50022,-2.35925 -0.17172,-0.7018 -0.33597,-1.46331 -0.47036,-2.09792 -0.13438,-0.63461 -0.2389,-1.14228 -0.29116,-1.64997 -0.0523,-0.50769 -0.0523,-1.01536 -0.0523,-1.67984 0,-0.66447 0,-1.48571 0.11199,-2.26217 0.11199,-0.77647 0.33596,-1.50812 0.58981,-2.23978 0.25384,-0.73167 0.53754,-1.46332 0.82872,-2.18752 0.29117,-0.72421 0.5898,-1.44092 0.87351,-2.12779 0.28371,-0.68687 0.55247,-1.34386 0.83618,-2.20992 0.28371,-0.86606 0.58234,-1.94114 0.86605,-3.0909 0.28371,-1.14977 0.55248,-2.37416 0.76899,-3.65832 0.21651,-1.28415 0.38076,-2.62799 0.45542,-3.83001 0.0747,-1.20203 0.0597,-2.26217 -0.007,-3.63592 -0.0672,-1.37375 -0.18665,-3.06101 -0.35837,-4.28543 -0.17172,-1.22442 -0.39569,-1.98594 -0.73913,-2.74747 -0.34344,-0.76153 -0.80631,-1.52304 -1.29161,-2.26218 -0.48529,-0.73913 -0.99296,-1.45584 -1.58278,-2.17258 -0.58982,-0.71673 -1.26173,-1.43345 -1.59024,-2.00086 -0.3285,-0.56742 -0.31356,-0.98551 -0.40315,-1.79184 -0.0896,-0.80633 -0.28371,-2.00086 -0.53009,-3.24769 -0.24638,-1.24682 -0.54501,-2.54586 -0.97057,-4.0316 -0.42557,-1.48574 -0.97803,-3.15808 -1.37373,-4.21824 -0.3957,-1.06017 -0.6346,-1.50812 -0.92097,-1.74054 -0.28637,-0.23243 -0.62018,-0.24933 -1.06472,-0.22157 -0.44454,0.0278 -0.99977,0.10019 -1.73005,0.29332 -0.73029,0.19313 -1.63557,0.50696 -2.49863,0.92944 -0.86306,0.42248 -1.68385,0.95358 -2.38395,1.53901 -0.7001,0.58543 -1.27948,1.22516 -1.70641,1.76115 -0.42693,0.53599 -0.70138,0.96821 -0.98133,1.35277 -0.27995,0.38457 -0.56538,0.72147 -0.8555,0.99521 -0.29011,0.27374 -0.58489,0.4843 -0.87735,0.58724 -0.29246,0.10295 -0.58255,0.0983 -0.87033,0.0796 -0.28778,-0.0187 -0.5732,-0.0515 -0.86331,-0.0889 -0.29012,-0.0374 -0.58491,-0.0796 -1.06921,-0.10294 -0.48431,-0.0234 -1.15811,-0.0281 -1.79917,3e-5 -0.64106,0.0281 -1.24934,0.0889 -1.79681,0.17547 -0.54748,0.0866 -1.03411,0.19887 -1.54883,0.31819 -0.51472,0.11932 -1.0575,0.24566 -1.9726,0.46859 -0.91511,0.22293 -2.20247,0.54244 -3.27087,0.83415 -1.0684,0.2917 -1.91778,0.55559 -2.67647,0.74114 -0.75869,0.18555 -1.42665,0.29275 -1.93382,0.34636 -0.50717,0.0536 -0.85352,0.0536 -1.20812,0.008 -0.35461,-0.0453 -0.71745,-0.13607 -1.06794,-0.26801 -0.35048,-0.13195 -0.68858,-0.30512 -1.00195,-0.50304 -0.31337,-0.19792 -0.602,-0.42058 -0.91537,-0.65561 -0.31338,-0.23503 -0.65148,-0.48242 -0.96897,-0.7257 -0.3175,-0.24327 -0.61437,-0.48242 -0.90713,-0.70508 -0.29275,-0.22266 -0.58138,-0.42882 -1.06793,-0.74632 -0.48656,-0.3175 -1.17101,-0.74631 -1.71117,-1.07205 -0.54015,-0.32574 -0.93598,-0.5484 -1.45552,-0.82054 -0.51954,-0.27213 -1.16276,-0.59375 -2.02866,-0.9566 -0.8659,-0.36285 -1.95443,-0.76693 -2.73786,-1.00196 -0.78342,-0.23502 -1.26172,-0.301 -1.87609,-0.37934 -0.61438,-0.0783 -1.3648,-0.16905 -1.81837,-0.17317 -0.45357,-0.004 -0.61024,0.0783 -0.73463,0.16808 -0.12438,0.0897 -0.21647,0.18678 -0.26252,0.23529 -0.046,0.0485 -0.0461,0.0485 -0.21415,0.61985 z"
           id="path1" /><path
           style="opacity:1;fill:#b89176;fill-opacity:1;stroke:none;stroke-width:0.476001;stroke-linecap:round;stroke-dasharray:none"
           d="m 110.28997,105.08171 c -0.14583,0.52083 -0.4375,1.56248 -0.59375,3.02081 -0.15624,1.45833 -0.17708,3.33326 -0.0208,5.21867 0.15625,1.88541 0.48957,3.78117 0.84373,5.14574 0.35417,1.36457 0.72916,2.19788 1.36457,3.47912 0.63542,1.28125 1.53122,3.01036 2.38538,4.70826 0.85416,1.69791 1.66663,3.36452 2.34371,4.82284 0.67708,1.45833 1.21872,2.70828 1.73956,3.73953 0.52083,1.03124 1.02081,1.84371 1.46872,2.56246 0.44792,0.71874 0.84373,1.34371 1.1354,1.91663 0.29166,0.57291 0.47916,1.09373 0.57291,1.56247 0.0937,0.46875 0.0937,0.8854 0.0937,1.1979 0,0.3125 0,0.52082 0.0833,0.65623 0.0833,0.13542 0.24999,0.19792 0.56249,0.22917 0.3125,0.0312 0.77082,0.0312 1.1979,-0.0937 0.42708,-0.125 0.8229,-0.37499 1.15623,-0.69791 0.33333,-0.32292 0.60415,-0.71873 0.7604,-1.02082 0.15625,-0.30208 0.19791,-0.51039 0.15625,-0.81248 -0.0417,-0.30209 -0.16666,-0.6979 -0.41666,-1.39582 -0.25,-0.69792 -0.62499,-1.69788 -0.80207,-2.38537 -0.17708,-0.6875 -0.15624,-1.06248 -0.0833,-1.45832 0.0729,-0.39583 0.19791,-0.81248 0.64446,-1.5991 0.44654,-0.78663 1.2146,-1.94318 1.67652,-2.66262 0.46192,-0.71944 0.61767,-1.00175 0.77343,-1.35221 0.15576,-0.35046 0.31151,-0.76905 0.4478,-1.28987 0.13629,-0.52082 0.25311,-1.14384 0.404,-1.88857 0.1509,-0.74472 0.33586,-1.61111 0.47215,-2.34123 0.13628,-0.73012 0.2239,-1.32394 0.52082,-2.16601 0.29691,-0.84208 0.80311,-1.93236 1.285,-2.81338 0.48188,-0.88101 0.9394,-1.5527 1.5089,-2.1222 0.5695,-0.56949 1.25093,-1.03676 1.82042,-1.37748 0.56949,-0.34072 1.02703,-0.55489 1.49917,-0.77392 0.47214,-0.21904 0.95888,-0.44294 1.40182,-0.70091 0.44294,-0.25798 0.84206,-0.55002 1.16818,-0.79826 0.32612,-0.24824 0.57923,-0.45267 0.78366,-0.69604 0.20443,-0.24338 0.36019,-0.52568 0.45754,-0.83233 0.0974,-0.30666 0.13628,-0.63763 0.16169,-0.90588 0.0254,-0.26825 0.0373,-0.47375 0.0373,-0.60005 5e-5,-0.12631 -0.0117,-0.17351 -0.1104,-0.17349 -0.0987,3e-5 -0.28425,0.0472 -0.85129,0.18413 -0.56703,0.13698 -1.51549,0.36378 -2.33566,0.57433 -0.82017,0.21054 -1.51199,0.40481 -2.22523,0.58895 -0.71324,0.18413 -1.44785,0.35812 -2.03427,0.49345 -0.58643,0.13533 -1.02461,0.23199 -1.38226,0.28354 -0.35765,0.0515 -0.63475,0.058 -0.90218,0.0451 -0.26743,-0.0129 -0.52518,-0.0451 -0.8023,-0.10959 -0.27711,-0.0644 -0.57352,-0.16111 -0.88284,-0.29643 -0.30932,-0.13533 -0.63152,-0.30932 -0.92473,-0.48976 -0.29321,-0.18043 -0.55741,-0.36731 -0.99884,-0.69596 -0.44143,-0.32866 -1.06005,-0.79907 -1.69481,-1.25983 -0.63475,-0.46076 -1.28559,-0.91184 -1.89134,-1.30816 -0.60576,-0.39631 -1.16638,-0.73784 -2.09021,-1.2059 -0.92383,-0.46806 -2.2108,-1.06262 -3.0507,-1.4243 -0.83989,-0.36168 -1.23266,-0.49046 -1.67374,-0.62246 -0.44109,-0.132 -0.93045,-0.26722 -1.38763,-0.36381 -0.45717,-0.0966 -0.88215,-0.15453 -1.25884,-0.20282 -0.37669,-0.0483 -0.70508,-0.0869 -0.97874,-0.10947 -0.27365,-0.0225 -0.49259,-0.029 -0.66967,-0.0258 -0.17707,0.003 -0.3123,0.0161 -0.42515,0.038 -0.11285,0.022 -0.20336,0.053 -0.2486,0.0685 -0.0452,0.0155 -0.0453,0.0156 -0.19115,0.53641 z"
           id="path4" /><path
           style="opacity:1;fill:#ffb6ce;fill-opacity:1;stroke:none;stroke-width:0.476001;stroke-linecap:round;stroke-dasharray:none"
           d="m 111.20563,107.92542 c -0.10107,0.3124 -0.30321,0.9372 -0.3951,1.99387 -0.0919,1.05666 -0.0735,2.54513 0.11025,4.12553 0.18376,1.5804 0.53291,3.25263 0.94639,4.71358 0.41348,1.46095 0.89126,2.71053 1.49769,3.90501 0.60643,1.19449 1.34148,2.33381 1.96629,3.0505 0.62481,0.71669 1.13934,1.01071 1.78252,1.13934 0.64319,0.12864 1.41499,0.0919 2.0398,-0.0551 0.62481,-0.14701 1.10259,-0.40428 1.46094,-0.63399 0.35834,-0.22971 0.59723,-0.43185 0.88207,-0.87289 0.28483,-0.44104 0.6156,-1.12096 0.97395,-1.90197 0.35835,-0.78101 0.74425,-1.66307 1.08422,-2.46245 0.33997,-0.79939 0.63398,-1.51606 0.71668,-2.26032 0.0827,-0.74426 -0.0459,-1.51606 -0.19296,-2.13168 -0.14701,-0.61562 -0.31239,-1.07502 -0.39509,-1.37823 -0.0827,-0.30322 -0.0827,-0.45023 -0.41348,-0.91884 -0.33078,-0.46861 -0.99232,-1.25878 -1.71821,-1.99385 -0.72588,-0.73507 -1.51605,-1.41499 -2.27868,-1.98467 -0.76264,-0.56967 -1.49768,-1.02907 -2.24194,-1.42417 -0.74426,-0.3951 -1.49768,-0.72587 -2.10411,-0.97396 -0.60643,-0.24808 -1.06584,-0.41347 -1.52526,-0.49617 -0.45942,-0.0827 -0.91882,-0.0827 -1.26797,-0.0276 -0.34916,0.0551 -0.58805,0.16539 -0.7075,0.22052 -0.11945,0.0551 -0.11943,0.0551 -0.2205,0.36753 z"
           id="path2" /><path
           style="opacity:1;fill:#b89176;fill-opacity:1;stroke:none;stroke-width:0.476001;stroke-linecap:round;stroke-dasharray:none"
           d="m 158.85974,102.26966 c 0.15475,-0.006 0.46427,-0.0194 0.72543,0.0322 0.26116,0.0516 0.47394,0.16765 0.71253,0.51908 0.23859,0.35144 0.50297,0.93822 0.80614,1.723 0.30317,0.78478 0.64512,1.7675 0.90734,2.60557 0.26222,0.83808 0.44469,1.53146 0.61348,2.13819 0.16879,0.60673 0.32389,1.12677 0.44249,1.61032 0.11861,0.48356 0.20072,0.93061 0.29652,1.47804 0.0958,0.54743 0.20528,1.19519 0.32389,1.90228 0.11861,0.70709 0.24634,1.47347 0.33301,2.00264 0.0867,0.52918 0.13229,0.82112 0.18704,1.0173 0.0548,0.19617 0.11861,0.29651 0.28715,0.522 0.16854,0.22549 0.44174,0.57609 0.71486,0.91522 0.27312,0.33913 0.54615,0.66676 0.82259,1.01146 0.27644,0.3447 0.55629,0.70646 0.81567,1.05798 0.25938,0.35153 0.49828,0.69281 0.69622,0.99315 0.19795,0.30033 0.35494,0.5597 0.51193,0.8225 0.157,0.26279 0.31399,0.52899 0.44709,0.78837 0.1331,0.25938 0.24231,0.51192 0.3447,0.77472 0.10239,0.2628 0.19794,0.53581 0.24572,0.69622 0.0478,0.16042 0.0478,0.20822 0.007,0.22186 -0.041,0.0136 -0.12285,-0.007 -0.23889,-0.0614 -0.11603,-0.0546 -0.26621,-0.14334 -0.45392,-0.2662 -0.18771,-0.12287 -0.41296,-0.27986 -0.74401,-0.56313 -0.33105,-0.28327 -0.76789,-0.69281 -1.10235,-1.02727 -0.33446,-0.33446 -0.56653,-0.59383 -0.8225,-0.91123 -0.25597,-0.3174 -0.53582,-0.69281 -0.83615,-1.18768 -0.30034,-0.49487 -0.62114,-1.10917 -0.92489,-1.76104 -0.30375,-0.65186 -0.59042,-1.34124 -0.73718,-1.76103 -0.14675,-0.41979 -0.15359,-0.56994 -0.35154,-0.76106 -0.19795,-0.19113 -0.58701,-0.4232 -0.97949,-0.65186 -0.39249,-0.22866 -0.78837,-0.45391 -1.13989,-0.63479 -0.35153,-0.18088 -0.65869,-0.3174 -0.96585,-0.44026 -0.30716,-0.12286 -0.61431,-0.23207 -0.97949,-0.35835 -0.36518,-0.12628 -0.78837,-0.26962 -1.07505,-0.36518 -0.28669,-0.0956 -0.43685,-0.14334 -0.61772,-0.2116 -0.18088,-0.0683 -0.39248,-0.15698 -0.72012,-0.30374 -0.32764,-0.14675 -0.7713,-0.35152 -1.17061,-0.51875 -0.39931,-0.16723 -0.75424,-0.29692 -1.03069,-0.4232 -0.27644,-0.12628 -0.47438,-0.24914 -0.93854,-0.47097 -0.46415,-0.22184 -1.19449,-0.54264 -1.71325,-0.75083 -0.51876,-0.20819 -0.8259,-0.30375 -1.55968,-0.51193 -0.73378,-0.20819 -1.89413,-0.52899 -2.57669,-0.73376 -0.68257,-0.20477 -0.88735,-0.29351 -1.01363,-0.39931 -0.12627,-0.10581 -0.17406,-0.22867 -0.1058,-0.27303 0.0683,-0.0444 0.25257,-0.0102 0.51877,0.0239 0.2662,0.0341 0.6143,0.0683 0.8805,0.0546 0.2662,-0.0136 0.4505,-0.0751 0.71329,-0.26279 0.2628,-0.18771 0.60408,-0.50169 0.91807,-0.86346 0.31398,-0.36177 0.60066,-0.7713 1.04092,-1.32419 0.44027,-0.55289 1.03409,-1.2491 1.4607,-1.70642 0.42661,-0.45733 0.68598,-0.67575 1.02386,-0.92489 0.33788,-0.24914 0.75424,-0.52899 1.17744,-0.78496 0.4232,-0.25597 0.85321,-0.48804 1.24911,-0.67574 0.39589,-0.18771 0.75765,-0.33105 1.05457,-0.43344 0.29691,-0.10238 0.52899,-0.16382 0.78837,-0.23208 0.25938,-0.0683 0.54605,-0.14333 0.75083,-0.20135 0.20478,-0.058 0.32763,-0.099 0.45165,-0.12062 0.12403,-0.0216 0.24925,-0.024 0.31184,-0.0251 0.0626,-0.001 0.0626,-0.001 0.21738,-0.008 z"
           id="path5"
           transform="matrix(1,0,0,0.99817704,0,0.22806352)" /><path
           style="opacity:1;fill:#ffb6ce;fill-opacity:1;stroke:none;stroke-width:0.476001;stroke-linecap:round;stroke-dasharray:none"
           d="m 158.561,102.55905 c -0.1997,0.24962 -0.5991,0.74887 -1.1165,1.44783 -0.51741,0.69895 -1.15281,1.59758 -1.63844,2.42816 -0.48564,0.83057 -0.82149,1.59304 -1.10742,2.2693 -0.28594,0.67626 -0.52194,1.26626 -0.63541,1.8109 -0.11347,0.54464 -0.10441,1.04388 -0.0227,1.43874 0.0817,0.39486 0.23601,0.68533 0.80788,1.0575 0.57188,0.37217 1.56128,0.82602 2.27384,1.11196 0.71257,0.28593 1.14827,0.40393 1.66114,0.5764 0.51287,0.17247 1.10287,0.3994 1.68382,0.6808 0.58095,0.28139 1.15281,0.61725 1.62029,0.89864 0.46748,0.2814 0.83056,0.50832 1.17096,0.72618 0.3404,0.21785 0.65809,0.42662 0.85326,0.55824 0.19516,0.13163 0.26777,0.18609 0.23146,0.0817 -0.0363,-0.10439 -0.18154,-0.36763 -0.26778,-0.67626 -0.0862,-0.30863 -0.11347,-0.66263 -0.17247,-1.20274 -0.059,-0.5401 -0.14978,-1.26626 -0.23147,-1.81089 -0.0817,-0.54464 -0.15431,-0.90773 -0.22239,-1.26628 -0.0681,-0.35854 -0.13162,-0.71256 -0.21332,-1.09835 -0.0817,-0.38579 -0.18154,-0.80333 -0.29047,-1.2345 -0.10893,-0.43117 -0.22693,-0.87595 -0.36763,-1.38428 -0.14069,-0.50833 -0.30408,-1.08018 -0.49017,-1.68382 -0.18608,-0.60365 -0.39485,-1.23904 -0.5991,-1.82907 -0.20424,-0.59002 -0.40393,-1.13464 -0.59909,-1.60212 -0.19517,-0.46748 -0.38579,-0.8578 -0.54919,-1.10289 -0.1634,-0.2451 -0.29953,-0.34493 -0.48108,-0.40847 -0.18155,-0.0635 -0.40847,-0.0908 -0.59909,-0.0908 -0.19062,0 -0.34495,0.0272 -0.4221,0.0409 -0.0771,0.0136 -0.0771,0.0136 -0.27681,0.26325 z"
           id="path3"
           transform="matrix(0.99784179,0,0,0.99784179,0.33231784,0.2540215)" /><path
           style="opacity:1;fill:#441211;fill-opacity:1;stroke:none;stroke-width:0.476001;stroke-linecap:round;stroke-dasharray:none"
           d="m 140.85251,122.9278 c -0.85917,0.61294 -2.19366,1.58181 -3.26309,2.52327 -1.06942,0.94147 -1.87376,1.85549 -2.64156,3.02546 -0.76779,1.16998 -1.499,2.59584 -2.00999,3.73769 -0.51099,1.14186 -0.80172,1.99963 -1.00086,2.56744 -0.19914,0.56781 -0.30668,0.84561 -0.26635,1.25786 0.0403,0.41225 0.22853,0.95891 0.63181,1.68482 0.40328,0.72591 1.02163,1.63103 1.49661,2.30316 0.47498,0.67214 0.80656,1.11126 1.33979,1.7117 0.53323,0.60045 1.26808,1.36218 2.18219,2.1329 0.91411,0.77072 2.00742,1.55038 3.02907,2.14186 1.02165,0.59148 1.97158,0.99475 2.8364,1.30393 0.86482,0.30919 1.64447,0.52426 2.37038,0.66765 0.72591,0.14339 1.39803,0.21509 2.27629,0.16579 0.87827,-0.0493 1.96262,-0.21956 2.80055,-0.39879 0.83793,-0.17924 1.42939,-0.36743 2.03883,-0.6035 0.60943,-0.23607 1.2368,-0.51999 1.99536,-0.88695 0.75857,-0.36696 1.64828,-0.81693 2.53802,-1.41009 0.88974,-0.59316 1.77945,-1.32947 2.57714,-2.06069 0.7977,-0.73122 1.50333,-1.45731 2.10161,-2.14762 0.59827,-0.69032 1.08914,-1.34482 1.5289,-2.04024 0.43975,-0.69543 0.82837,-1.43175 1.15562,-2.22433 0.32726,-0.79258 0.59315,-1.64139 0.78235,-2.34704 0.1892,-0.70566 0.30169,-1.26812 0.32214,-1.72833 0.0205,-0.4602 -0.0511,-0.81813 -0.28124,-1.36527 -0.23011,-0.54714 -0.61872,-1.28345 -0.93575,-1.84593 -0.31703,-0.56248 -0.56247,-0.95109 -0.96132,-1.55959 -0.39885,-0.6085 -0.95108,-1.43685 -1.38572,-2.07092 -0.43465,-0.63406 -0.75167,-1.0738 -1.15563,-1.52379 -0.40396,-0.44998 -0.89484,-0.91018 -1.36016,-1.31414 -0.46532,-0.40396 -0.90507,-0.75166 -1.37551,-1.06869 -0.47043,-0.31704 -0.97153,-0.60338 -1.46242,-0.83348 -0.49089,-0.23011 -0.97154,-0.40396 -1.58516,-0.56759 -0.61361,-0.16363 -1.36015,-0.31703 -2.04535,-0.43464 -0.6852,-0.11761 -1.30902,-0.19942 -2.00445,-0.21476 -0.69543,-0.0153 -1.46242,0.0358 -2.20898,0.12784 -0.74656,0.092 -1.47265,0.22499 -2.19876,0.42441 -0.7261,0.19943 -1.45219,0.46532 -2.15785,0.76701 -0.70565,0.30169 -1.39083,0.63917 -1.92536,0.93641 -0.53453,0.29725 -0.91838,0.55424 -1.77755,1.16718 z"
           id="path6" /><path
           style="opacity:1;fill:#63251c;fill-opacity:1;stroke:none;stroke-width:0.476001;stroke-linecap:round;stroke-dasharray:none"
           d="m 132.16151,135.70849 c 0.41138,-0.10056 1.23414,-0.30167 2.13917,-0.4388 0.90504,-0.13712 1.89233,-0.21026 2.81565,-0.064 0.92332,0.14627 1.78262,0.51193 2.70594,0.96902 0.92332,0.45709 1.9106,1.00558 2.98934,1.57237 1.07873,0.56679 2.24884,1.15185 3.27272,1.52666 1.02388,0.37481 1.90147,0.53936 2.71508,0.62164 0.81362,0.0823 1.56323,0.0823 2.26714,-0.0457 0.70392,-0.12798 1.36211,-0.38394 2.02032,-0.74048 0.65821,-0.35653 1.3164,-0.8136 2.01117,-1.35297 0.69478,-0.53937 1.4261,-1.16099 2.06603,-1.8192 0.63992,-0.65821 1.18841,-1.35296 1.78263,-1.98374 0.59421,-0.63079 1.23412,-1.19756 1.94718,-1.72779 0.71306,-0.53022 1.49923,-1.02386 2.08724,-1.39111 0.58801,-0.36725 0.97783,-0.60809 1.2257,-0.75258 0.24786,-0.14449 0.3538,-0.19264 0.43083,-0.22634 0.077,-0.0337 0.12519,-0.053 0.16612,-0.0217 0.0409,0.0313 0.0746,0.11313 0.18056,0.3298 0.10593,0.21667 0.28407,0.56814 0.41166,0.8811 0.1276,0.31296 0.20463,0.58741 0.2263,0.92204 0.0217,0.33464 -0.012,0.72944 -0.0915,1.16037 -0.0795,0.43093 -0.20463,0.89796 -0.3876,1.495 -0.18296,0.59705 -0.4237,1.32407 -0.66203,1.9163 -0.23834,0.59222 -0.47426,1.04962 -0.82815,1.625 -0.35389,0.57538 -0.82573,1.26869 -1.23259,1.80555 -0.40685,0.53685 -0.7487,0.91722 -1.09296,1.30241 -0.34426,0.38519 -0.69093,0.77518 -1.17964,1.23982 -0.48871,0.46463 -1.11943,1.00387 -1.68277,1.44202 -0.56334,0.43816 -1.05926,0.77519 -1.72371,1.17241 -0.66445,0.39723 -1.4974,0.85463 -2.145,1.17481 -0.64759,0.32019 -1.1098,0.50315 -1.51907,0.67648 -0.40926,0.17334 -0.76555,0.33704 -1.25426,0.48871 -0.4887,0.15166 -1.1098,0.29129 -1.69722,0.40203 -0.58742,0.11075 -1.1411,0.1926 -1.62981,0.24797 -0.48871,0.0554 -0.9124,0.0843 -1.32407,0.0771 -0.41167,-0.007 -0.81129,-0.0505 -1.16519,-0.11314 -0.3539,-0.0626 -0.66203,-0.14444 -1.15314,-0.26963 -0.49112,-0.12518 -1.16518,-0.2937 -1.81759,-0.52722 -0.65242,-0.23352 -1.28315,-0.53203 -1.87056,-0.84018 -0.58741,-0.30815 -1.13148,-0.62593 -1.64186,-0.95815 -0.51037,-0.33223 -0.98702,-0.67888 -1.4011,-0.98463 -0.41408,-0.30574 -0.76555,-0.57055 -1.11703,-0.86667 -0.35149,-0.29611 -0.70296,-0.62351 -1.21815,-1.20611 -0.5152,-0.5826 -1.19407,-1.42036 -1.70204,-2.08 -0.50797,-0.65963 -0.84499,-1.1411 -1.15555,-1.60814 -0.31056,-0.46704 -0.59463,-0.91963 -0.8113,-1.33371 -0.21666,-0.41407 -0.36592,-0.78962 -0.43333,-1.03759 -0.0674,-0.24797 -0.053,-0.36833 -0.0285,-0.44014 0.0245,-0.0718 0.0591,-0.0951 0.0763,-0.10666 0.0172,-0.0116 0.0173,-0.0117 0.42864,-0.11222 z"
           id="path7" /><path
           style="opacity:1;fill:#424141;fill-opacity:1;stroke:none;stroke-width:0.476001;stroke-linecap:round;stroke-dasharray:none"
           d="m 133.32825,117.53376 c -0.21883,0.23156 -0.65651,0.69468 -0.95423,1.03567 -0.29773,0.34098 -0.45549,0.55981 -0.52673,0.73539 -0.0712,0.17558 -0.056,0.3079 -0.0153,0.41223 0.0407,0.10433 0.10687,0.18067 0.22902,0.24428 0.12214,0.0636 0.30026,0.11451 0.52165,0.10942 0.22139,-0.005 0.48601,-0.0662 0.88044,-0.1883 0.39442,-0.12215 0.9186,-0.30536 1.34101,-0.47076 0.42241,-0.1654 0.74303,-0.31299 1.03312,-0.44277 0.29009,-0.12978 0.54964,-0.24174 0.86008,-0.3766 0.31045,-0.13487 0.67178,-0.29263 1.00767,-0.39442 0.3359,-0.10178 0.64634,-0.14759 0.92116,-0.21375 0.27481,-0.0662 0.51401,-0.15267 0.69977,-0.23919 0.18575,-0.0865 0.31808,-0.17303 0.37916,-0.32571 0.0611,-0.15268 0.0509,-0.37152 -0.0354,-0.54541 -0.0863,-0.17389 -0.24888,-0.30284 -0.48596,-0.4031 -0.23708,-0.10026 -0.54866,-0.17181 -0.9145,-0.24105 -0.36584,-0.0693 -0.78593,-0.13618 -1.18294,-0.14772 -0.39701,-0.0115 -0.77092,0.0323 -1.13561,0.11079 -0.36469,0.0785 -0.72015,0.19158 -1.01328,0.30353 -0.29314,0.11194 -0.52395,0.22273 -0.704,0.32776 -0.18005,0.10503 -0.30928,0.20427 -0.4152,0.283 -0.10592,0.0787 -0.18847,0.13694 -0.22976,0.16604 -0.0413,0.0291 -0.0413,0.0291 -0.26016,0.26067 z"
           id="path8" /><path
           style="opacity:1;fill:#ffffff;fill-opacity:1;stroke:none;stroke-width:0.476001;stroke-linecap:round;stroke-dasharray:none"
           d="m 135.74981,117.1668 c -0.0669,0.0323 -0.20082,0.097 -0.30471,0.16506 -0.10389,0.0681 -0.17771,0.13963 -0.2158,0.2158 -0.0381,0.0762 -0.0404,0.15696 -0.002,0.22851 0.0381,0.0715 0.11655,0.13386 0.1916,0.16272 0.0751,0.0289 0.14652,0.0243 0.22499,-0.009 0.0785,-0.0334 0.1639,-0.0958 0.27584,-0.16041 0.11194,-0.0646 0.25044,-0.13157 0.36469,-0.16503 0.11424,-0.0335 0.20427,-0.0335 0.28273,-0.045 0.0785,-0.0115 0.14543,-0.0347 0.19505,-0.0716 0.0496,-0.0369 0.0819,-0.0877 0.0877,-0.16155 0.006,-0.0739 -0.015,-0.17081 -0.0473,-0.23313 -0.0323,-0.0623 -0.0762,-0.09 -0.15466,-0.10506 -0.0785,-0.015 -0.19159,-0.0173 -0.30353,-0.004 -0.11195,0.0138 -0.22273,0.0438 -0.31043,0.0715 -0.0877,0.0277 -0.15235,0.0531 -0.18467,0.0658 -0.0323,0.0127 -0.0322,0.0128 -0.0991,0.0451 z"
           id="path9" /><path
           style="opacity:1;fill:#424141;fill-opacity:1;stroke:none;stroke-width:0.476001;stroke-linecap:round;stroke-dasharray:none"
           d="m 153.20318,113.34057 c 0.12134,-0.0246 0.36401,-0.0738 0.66572,-0.10821 0.30171,-0.0344 0.66243,-0.0541 0.98382,-0.059 0.32139,-0.005 0.6034,0.005 0.81492,0.0279 0.21153,0.0229 0.35254,0.059 0.47879,0.12297 0.12625,0.064 0.23775,0.15578 0.37057,0.27876 0.13282,0.12298 0.28694,0.27711 0.4378,0.44928 0.15085,0.17217 0.29842,0.36236 0.43123,0.53453 0.13282,0.17217 0.25088,0.3263 0.33943,0.446 0.0885,0.11971 0.14757,0.20496 0.17217,0.28861 0.0246,0.0836 0.0148,0.16559 -0.0229,0.25905 -0.0377,0.0935 -0.10329,0.1984 -0.19512,0.26727 -0.0918,0.0689 -0.20988,0.10167 -0.34106,0.10003 -0.13118,-0.002 -0.27545,-0.0377 -0.42631,-0.0869 -0.15086,-0.0492 -0.30827,-0.1115 -0.53619,-0.16397 -0.22792,-0.0525 -0.52633,-0.0951 -0.82312,-0.15578 -0.29679,-0.0607 -0.59193,-0.13937 -0.89691,-0.21643 -0.30498,-0.0771 -0.61981,-0.15249 -0.8838,-0.20824 -0.26399,-0.0558 -0.47714,-0.0918 -0.69851,-0.1279 -0.22136,-0.0361 -0.45092,-0.0722 -0.63621,-0.11642 -0.18529,-0.0443 -0.32629,-0.0967 -0.43124,-0.17218 -0.10495,-0.0754 -0.17379,-0.1738 -0.20494,-0.28859 -0.0311,-0.11479 -0.0246,-0.24594 0.0131,-0.35253 0.0377,-0.10659 0.10657,-0.18855 0.2066,-0.2689 0.10002,-0.0803 0.23119,-0.15905 0.34925,-0.2148 0.11806,-0.0558 0.223,-0.0885 0.33942,-0.1197 0.11642,-0.0311 0.24431,-0.0606 0.30826,-0.0754 0.0639,-0.0148 0.0639,-0.0148 0.18524,-0.0394 z"
           id="path10" /><path
           style="opacity:1;fill:#ffffff;fill-opacity:1;stroke:none;stroke-width:0.476001;stroke-linecap:round;stroke-dasharray:none"
           d="m 153.36716,114.25552 c -0.01,0.0541 -0.0295,0.16234 -0.0147,0.25745 0.0148,0.0951 0.064,0.17708 0.16889,0.22627 0.10494,0.0492 0.26563,0.0656 0.45912,0.0705 0.19349,0.005 0.41976,-0.002 0.587,-0.005 0.16725,-0.003 0.27547,-0.003 0.36403,-0.0197 0.0886,-0.0164 0.1574,-0.0492 0.20822,-0.0787 0.0508,-0.0295 0.0837,-0.0558 0.10333,-0.11809 0.0197,-0.0623 0.0262,-0.16067 0.0148,-0.24266 -0.0115,-0.082 -0.041,-0.14756 -0.16394,-0.19019 -0.12297,-0.0426 -0.3394,-0.0623 -0.55421,-0.0688 -0.21481,-0.007 -0.42795,1e-5 -0.58702,0.007 -0.15907,0.007 -0.26398,0.0131 -0.35089,0.0312 -0.0869,0.018 -0.15576,0.0475 -0.1902,0.0623 -0.0344,0.0147 -0.0345,0.0147 -0.0444,0.0688 z"
           id="path11" /><path
           style="opacity:1;fill:#ffb6ce;fill-opacity:1;stroke:none;stroke-width:0.476001;stroke-linecap:round;stroke-dasharray:none"
           d="m 145.46196,116.70921 c 0.031,0.0757 0.0932,0.22707 0.29888,0.38039 0.20573,0.15333 0.55506,0.30858 0.97816,0.44444 0.4231,0.13586 0.91993,0.2523 1.35079,0.33964 0.43086,0.0873 0.79572,0.14556 1.18388,0.1766 0.38816,0.031 0.7996,0.0349 1.16059,0.0524 0.36099,0.0175 0.67151,0.0485 0.98786,0.033 0.31635,-0.0155 0.63851,-0.0776 0.94322,-0.19213 0.30471,-0.11451 0.59194,-0.28141 0.77049,-0.4328 0.17856,-0.15139 0.24842,-0.28723 0.27366,-0.43279 0.0252,-0.14556 0.006,-0.30082 -0.0582,-0.45026 -0.0641,-0.14944 -0.17273,-0.29306 -0.29888,-0.40368 -0.12615,-0.11062 -0.26977,-0.18826 -0.4755,-0.28336 -0.20573,-0.0951 -0.47355,-0.20766 -0.77826,-0.25036 -0.3047,-0.0427 -0.64628,-0.0155 -1.07325,0.0175 -0.42698,0.033 -0.93934,0.0718 -1.40707,0.12227 -0.46773,0.0505 -0.89082,0.11256 -1.26928,0.14555 -0.37845,0.033 -0.71226,0.0369 -0.97815,0.0465 -0.26589,0.01 -0.46384,0.0252 -0.67733,0.0466 -0.21349,0.0213 -0.4425,0.0485 -0.58805,0.1106 -0.14555,0.0621 -0.20768,0.15916 -0.25619,0.24067 -0.0485,0.0815 -0.0835,0.14751 -0.10093,0.1805 -0.0175,0.033 -0.0175,0.033 0.0136,0.10873 z"
           id="path12" /></g></g></g></svg>
