<?xml version="1.0" encoding="UTF-8" standalone="no"?>
<!-- Created with Inkscape (http://www.inkscape.org/) -->

<svg
   width="83.627228mm"
   height="75.386055mm"
   viewBox="0 0 83.627228 75.386055"
   version="1.1"
   id="svg1"
   xml:space="preserve"
   xmlns="http://www.w3.org/2000/svg"
   xmlns:svg="http://www.w3.org/2000/svg"><defs
     id="defs1" /><g
     id="layer1"
     transform="translate(-110.38787,-52.090502)"><g
       id="g137"><path
         style="fill:#fff7f5;fill-opacity:1;stroke:#4b4342;stroke-width:0.499999;stroke-linecap:round;stroke-dasharray:none;stroke-opacity:1"
         d="m 124.69031,83.477947 c 0.006,-0.201179 0.0178,-0.603541 0.0651,-0.91714 0.0473,-0.3136 0.13018,-0.538456 0.21895,-0.680473 0.0888,-0.142018 0.18341,-0.201174 0.27809,-0.254434 0.0947,-0.05326 0.18934,-0.100585 0.22484,-0.355023 0.0355,-0.254439 0.0118,-0.715956 0.0296,-1.059153 0.0177,-0.343197 0.0769,-0.568035 0.15384,-0.905314 0.0769,-0.337279 0.1716,-0.786963 0.26628,-1.041402 0.0947,-0.254439 0.18933,-0.313595 0.23667,-0.550283 0.0473,-0.236688 0.0473,-0.650875 0.0473,-0.958564 0,-0.307689 0,-0.508868 0.0355,-0.68638 0.0355,-0.177512 0.10651,-0.331354 0.22485,-0.485199 0.11834,-0.153844 0.28402,-0.307686 0.39645,-0.473369 0.11242,-0.165684 0.17159,-0.343184 0.28401,-0.686379 0.11243,-0.343195 0.2781,-0.852051 0.46153,-1.319503 0.18343,-0.467452 0.38461,-0.893473 0.53845,-1.420099 0.15385,-0.526625 0.26035,-1.153823 0.39645,-1.556187 0.1361,-0.402363 0.30177,-0.579868 0.47337,-0.798801 0.17159,-0.218933 0.3491,-0.47928 0.43785,-0.804723 0.0888,-0.325442 0.0888,-0.715959 0.24261,-1.118326 0.15385,-0.402367 0.46153,-0.816553 0.7633,-1.136076 0.30177,-0.319522 0.59762,-0.544367 0.74554,-0.704126 0.14793,-0.159758 0.14793,-0.254434 -0.0237,-0.372776 -0.17159,-0.118343 -0.51478,-0.260353 -0.72187,-0.396444 -0.2071,-0.136091 -0.2781,-0.266266 -0.22485,-0.408278 0.0533,-0.142012 0.23076,-0.295847 0.31952,-0.502949 0.0888,-0.207101 0.0888,-0.467448 0.0533,-0.639041 -0.0355,-0.171593 -0.10651,-0.254433 -0.3077,-0.473369 -0.20118,-0.218936 -0.53253,-0.573955 -0.50294,-0.7633 0.0296,-0.189346 0.42011,-0.213016 0.75739,-0.260355 0.33727,-0.04734 0.62128,-0.11834 0.23074,-1.047337 -0.39053,-0.928997 -1.45558,-2.715914 -2.20705,-4.165606 -0.75147,-1.449691 -1.18933,-2.562081 -1.36092,-3.212964 -0.17159,-0.650884 -0.0769,-0.840212 0.18935,-0.92897 0.26627,-0.08876 0.70412,-0.07692 1.41418,0.12426 0.71006,0.201184 1.69227,0.591702 2.31356,0.852055 0.6213,0.260352 0.88165,0.390525 1.34319,0.639044 0.46153,0.248519 1.12423,0.615371 1.96446,1.112411 0.84024,0.497041 1.85795,1.124235 2.69227,1.62719 0.83431,0.502955 1.48517,0.881638 1.98813,1.059151 0.50295,0.177513 0.85796,0.153847 1.29583,0.177516 0.43787,0.02367 0.95856,0.09467 1.4201,0.242601 0.46153,0.147929 0.86389,0.372776 1.29583,0.508868 0.43195,0.136092 0.89348,0.183427 1.50294,0.289936 0.60947,0.106509 1.36684,0.272184 2.87571,0.408278 1.50888,0.136094 3.76915,0.242599 5.53244,0.420112 1.7633,0.177514 3.02953,0.426026 4.04728,0.597622 1.01774,0.171596 1.78694,0.266267 2.56208,0.508871 0.77515,0.242604 1.55618,0.633119 2.28991,0.911225 0.73372,0.278105 1.42008,0.443778 2.17747,0.556204 0.7574,0.112425 1.58577,0.171594 2.3905,0.378695 0.80473,0.207101 1.58576,0.562115 2.10055,0.786965 0.51479,0.22485 0.7633,0.319521 1.3136,0.284017 0.55029,-0.0355 1.40233,-0.201178 2.26623,-0.455614 0.8639,-0.254437 1.73961,-0.59762 2.6686,-1.059156 0.92899,-0.461537 1.9112,-1.041396 2.7041,-1.455594 0.79289,-0.414198 1.39642,-0.662711 1.78695,-0.751467 0.39052,-0.08876 0.56803,-0.01775 0.73371,0.69231 0.16568,0.710061 0.31952,2.059124 0.27218,3.289885 -0.0473,1.230761 -0.29585,2.343145 -0.50295,3.23663 -0.2071,0.893485 -0.37277,1.568015 -0.46153,2.053217 -0.0888,0.485203 -0.10059,0.781051 -0.2426,1.325428 -0.14201,0.544377 -0.41419,1.337248 -0.33727,1.721857 0.0769,0.384608 0.50295,0.360939 0.76922,0.37869 0.26627,0.01775 0.37277,0.07692 0.36094,0.224849 -0.0118,0.14793 -0.14201,0.384607 -0.2071,0.591706 -0.0651,0.207099 -0.0651,0.384608 -0.0177,0.497038 0.0473,0.11243 0.142,0.159755 0.1775,0.248515 0.0355,0.08876 0.0118,0.218923 -0.0888,0.325434 -0.10059,0.106511 -0.2781,0.189348 -0.27218,0.325442 0.006,0.136094 0.19527,0.32544 0.29585,0.497033 0.10059,0.171594 0.11243,0.325439 0.0237,0.449698 -0.0888,0.124259 -0.2781,0.218928 -0.47337,0.272181 -0.19526,0.05325 -0.39644,0.06509 -0.47928,0.449704 -0.0828,0.384616 -0.0473,1.141986 0.0118,1.662684 0.0592,0.520699 0.14201,0.804724 0.2071,1.035486 0.0651,0.230763 0.11243,0.408288 0.12426,0.786983 0.0118,0.378695 -0.0118,0.958554 0.18344,1.485178 0.19527,0.526625 0.60945,0.999978 0.8343,1.384591 0.22485,0.384613 0.26035,0.680459 0.34911,1.319513 0.0887,0.639054 0.23076,1.621266 0.27218,2.278066 0.0414,0.6568 -0.0178,0.988143 0.25091,1.365978 0.26866,0.377835 0.86513,0.802133 1.44451,1.365722 0.57939,0.563588 1.14167,1.266433 1.59351,1.858848 0.45184,0.592416 0.79323,1.074373 1.1547,1.656749 0.36147,0.582377 0.74302,1.265139 1.16474,1.957966 0.42172,0.692826 0.88359,1.395671 1.35552,2.158784 0.47192,0.763113 0.95387,1.586445 1.38564,2.540338 0.43176,0.953893 0.8133,2.038283 1.12457,3.032333 0.31127,0.99406 0.55225,1.89772 0.77315,2.83153 0.2209,0.93381 0.42171,1.89771 0.52212,2.75119 0.10041,0.85348 0.10041,1.59649 0.13053,2.49014 0.0301,0.89365 0.0904,1.93788 0.26106,3.08255 0.1707,1.14467 0.45184,2.38971 0.76311,3.80548 0.31127,1.41578 0.65265,3.00221 0.81331,4.2272 0.16066,1.225 0.1406,2.08849 0.13056,2.75119 -0.01,0.6627 -0.01,1.12457 -0.17069,1.38563 -0.16066,0.26107 -0.48196,0.32131 -14.3085,0.54222 -13.82653,0.2209 -41.15721,0.60245 -54.8429,0.70285 -13.6857,0.1004 -13.72585,-0.0803 -13.75599,-0.24097 -0.0301,-0.16066 -0.0502,-0.30123 -0.0402,-0.64263 0.01,-0.34139 0.0502,-0.88359 0.30123,-1.44588 0.25102,-0.5623 0.71289,-1.14465 1.22498,-1.85756 0.51209,-0.71291 1.07437,-1.55633 1.48605,-2.26923 0.41167,-0.71291 0.67273,-1.29527 0.94383,-1.84752 0.27111,-0.55225 0.55225,-1.07437 0.81331,-1.67683 0.26107,-0.60246 0.50205,-1.28522 0.72295,-1.93789 0.2209,-0.65266 0.42171,-1.27518 0.84343,-2.12866 0.42172,-0.85348 1.06433,-1.93788 1.51617,-2.7512 0.45184,-0.81331 0.7129,-1.3555 1.06433,-1.85755 0.35144,-0.50205 0.79323,-0.96392 1.06433,-1.49609 0.27111,-0.53217 0.37151,-1.13461 0.45184,-1.55632 0.0803,-0.42172 0.14057,-0.6627 0.35143,-1.11455 0.21087,-0.45185 0.57233,-1.11453 0.9338,-1.94793 0.36148,-0.8334 0.72294,-1.83747 0.92376,-2.530292 0.20081,-0.692823 0.24098,-1.074361 0.22089,-1.56637 -0.0201,-0.492008 -0.1004,-1.094449 0.0865,-3.554738 0.18693,-2.460289 0.6411,-6.778242 0.86819,-8.937262 0.22709,-2.159019 0.22709,-2.159011 0.23301,-2.360191 z"
         id="path78" /><path
         style="fill:#deaf85;fill-opacity:1;stroke:none;stroke-width:0.499999;stroke-linecap:round;stroke-dasharray:none;stroke-opacity:1"
         d="m 133.95739,64.863528 c -0.16433,-0.01409 -0.49299,-0.04225 -0.9766,0.244158 -0.48361,0.286413 -1.12213,0.887377 -1.49305,1.436716 -0.37092,0.549339 -0.47421,1.047015 -0.41317,1.619829 0.061,0.572814 0.2864,1.220731 0.47421,1.80763 0.18781,0.5869 0.33805,1.112749 0.36622,1.544705 0.0282,0.431957 -0.0657,0.769998 -0.16434,1.112749 -0.0986,0.342751 -0.20189,0.690182 -0.17371,1.047019 0.0282,0.356836 0.1878,0.72305 0.26292,1.201959 0.0751,0.47891 0.0657,1.070492 -2e-5,1.572879 -0.0657,0.502386 -0.18781,0.915551 -0.17372,1.291165 0.0141,0.375614 0.16433,0.71366 0.26292,1.009462 0.0986,0.295801 0.14555,0.549326 0.18311,0.835735 0.0376,0.286409 0.0657,0.605674 0.20658,1.047021 0.14085,0.441347 0.39438,1.004753 0.69957,1.432016 0.30519,0.427262 0.66202,0.718357 1.12684,0.863906 0.46483,0.145548 1.03762,0.145548 1.57287,0.117377 0.53526,-0.02817 1.03293,-0.08451 1.36629,-0.300492 0.33336,-0.215981 0.50238,-0.591583 0.73714,-0.939027 0.23476,-0.347444 0.53525,-0.66671 0.91087,-0.948421 0.37561,-0.281712 0.82634,-0.525858 1.13152,-0.816959 0.30519,-0.291102 0.46482,-0.629146 0.77001,-0.948419 0.30519,-0.319274 0.75592,-0.61976 1.05641,-0.901472 0.30049,-0.281712 0.45073,-0.544634 0.56811,-0.821648 0.11737,-0.277015 0.20189,-0.568115 0.64324,-1.028244 0.44135,-0.460129 1.23951,-1.089268 1.94379,-1.422625 0.70428,-0.333357 1.31464,-0.370917 1.67147,-0.577506 0.35683,-0.206589 0.46013,-0.582197 0.67141,-0.906166 0.21129,-0.323969 0.53055,-0.59628 0.89678,-0.924944 0.36622,-0.328665 0.77939,-0.713661 0.98597,-1.206658 0.20659,-0.492997 0.20659,-1.093964 0.38501,-1.413235 0.17842,-0.319271 0.53524,-0.356831 0.78878,-0.06573 0.25354,0.291106 0.40378,0.910852 0.65733,1.394457 0.25354,0.483605 0.61036,0.831038 0.84981,1.286474 0.23946,0.455435 0.36153,1.018841 0.41787,1.403837 0.0563,0.384996 0.0469,0.591598 0.11267,0.863921 0.0657,0.272322 0.20658,0.610365 0.27231,1.004759 0.0657,0.394394 0.0563,0.845127 -0.0939,1.197266 -0.15026,0.35214 -0.44135,0.605671 -0.54464,0.920249 -0.1033,0.314578 -0.0188,0.690184 0.005,1.155011 0.0235,0.464827 -0.0141,1.01884 0.22537,1.408542 0.23946,0.389702 0.75592,0.615065 1.1597,0.915559 0.40379,0.300493 0.69488,0.676096 0.93903,0.873292 0.24415,0.197195 0.44134,0.215975 0.66202,0.394393 0.22067,0.178419 0.46482,0.516467 0.58689,0.812262 0.12207,0.295796 0.12207,0.54933 0.23476,0.845129 0.11269,0.295798 0.33805,0.633841 0.61976,0.971896 0.28172,0.338055 0.61976,0.676096 0.85452,0.87799 0.23476,0.201893 0.36622,0.267624 0.70427,0.333356 0.33806,0.06573 0.88269,0.131464 1.61514,0.17372 0.73245,0.04226 1.65268,0.06104 2.3147,-0.09861 0.66203,-0.159641 1.0658,-0.497682 1.42733,-0.770002 0.36153,-0.272321 0.68079,-0.4789 0.95781,-0.619757 0.27702,-0.140856 0.51177,-0.215977 0.7794,-0.197195 0.26763,0.01878 0.56811,0.131462 1.11745,0.126766 0.54934,-0.0047 1.3475,-0.126767 1.9297,-0.309881 0.58221,-0.183114 0.94842,-0.427256 1.30995,-0.82635 0.36153,-0.399094 0.71835,-0.953107 0.90616,-1.507143 0.1878,-0.554035 0.20656,-1.108052 0.20656,-1.408547 0,-0.300495 -0.0188,-0.347456 0.14557,-0.460132 0.16435,-0.112675 0.51178,-0.291086 0.87801,-0.59158 0.36622,-0.300494 0.75121,-0.723047 1.00006,-1.183177 0.24885,-0.460131 0.36153,-0.957807 0.36153,-1.450804 -1e-5,-0.492998 -0.11269,-0.981284 -0.36153,-1.483669 -0.24885,-0.502386 -0.63385,-1.018846 -1.20197,-1.450803 -0.56812,-0.431957 -1.31933,-0.779391 -1.87805,-0.957806 -0.55873,-0.178415 -0.92495,-0.187805 -1.40855,-0.173719 -0.48361,0.01409 -1.08458,0.05165 -1.39915,-5e-6 -0.31458,-0.05165 -0.34274,-0.192492 0.12209,-0.596284 0.46483,-0.403793 1.42262,-1.070491 2.38983,-1.784164 0.96722,-0.713672 1.94379,-1.474269 3.04716,-2.43209 1.10337,-0.957821 2.33348,-2.112807 3.61057,-3.511979 1.2771,-1.399172 2.6011,-3.04244 3.25372,-3.925131 0.65262,-0.882692 0.63382,-1.004762 0.39905,-0.953114 -0.23477,0.05165 -0.68549,0.277009 -1.87808,0.845133 -1.19259,0.568123 -3.12695,1.478963 -4.57777,2.037689 -1.45081,0.558727 -2.41799,0.765309 -3.04714,0.816954 -0.62916,0.05165 -0.92025,-0.05165 -1.35221,-0.225367 -0.43196,-0.173723 -1.00476,-0.417866 -1.57757,-0.605674 -0.57282,-0.187807 -1.14561,-0.319268 -1.71843,-0.37561 -0.57281,-0.05634 -1.14561,-0.03756 -1.59165,-0.05634 -0.44604,-0.01878 -0.76531,-0.07512 -1.19257,-0.295801 -0.42727,-0.220677 -0.9625,-0.605668 -1.52123,-0.868598 -0.55873,-0.262931 -1.14092,-0.403783 -1.85929,-0.535248 -0.71836,-0.131465 -1.57286,-0.253537 -2.60581,-0.43665 -1.03294,-0.183114 -2.24427,-0.427257 -3.50728,-0.544636 -1.26301,-0.117379 -2.57762,-0.107989 -3.74672,-0.140856 -1.16911,-0.03287 -2.19263,-0.107988 -2.91099,-0.215979 -0.71837,-0.107991 -1.13153,-0.248841 -1.43202,-0.347439 -0.30049,-0.0986 -0.4883,-0.154941 -0.83574,-0.197197 -0.34745,-0.04226 -0.85451,-0.07043 -1.27708,-0.178415 -0.42257,-0.107991 -0.76061,-0.295791 -1.263,-0.422561 -0.50239,-0.12677 -1.16909,-0.192501 -1.68556,-0.05164 -0.51647,0.140859 -0.88268,0.488292 -1.10805,0.798173 -0.22536,0.309881 -0.30988,0.582198 -0.46013,0.887388 -0.15024,0.305191 -0.36622,0.643234 -0.5775,0.934336 -0.21128,0.291103 -0.41787,0.535245 -0.56811,0.755917 -0.15024,0.220672 -0.24415,0.417866 -0.4641,0.710481 -0.21996,0.292615 -0.56594,0.680624 -0.77328,1.065663 -0.20734,0.38504 -0.27602,0.767078 -0.31466,1.123377 -0.0386,0.356299 -0.0472,0.68682 -0.073,0.88213 -0.0258,0.195309 -0.0687,0.25544 -0.30311,0.137077 -0.23441,-0.118362 -0.66029,-0.415149 -0.87323,-0.563546 -0.21295,-0.148397 -0.21277,-0.148397 -0.3771,-0.162482 z"
         id="path134" /><path
         style="fill:none;fill-opacity:1;stroke:#4b4342;stroke-width:0.499999;stroke-linecap:round;stroke-dasharray:none;stroke-opacity:1"
         d="m 124.76992,98.798553 c 0.31527,0.400479 0.63054,0.800955 0.94581,1.201434"
         id="path95" /><path
         style="fill:none;fill-opacity:1;stroke:#4b4342;stroke-width:0.499999;stroke-linecap:round;stroke-dasharray:none;stroke-opacity:1"
         d="m 127.40285,100.58792 c 0.11077,0 0.22154,0 0.33231,0"
         id="path96" /><path
         style="fill:none;fill-opacity:1;stroke:#4b4342;stroke-width:0.499999;stroke-linecap:round;stroke-dasharray:none;stroke-opacity:1"
         d="m 129.65233,101.2781 c 0.51977,0.74983 1.03954,1.49966 1.65304,2.18559 0.61351,0.68593 1.32072,1.30794 2.1089,1.82771 0.78818,0.51977 1.65728,0.93728 2.45399,1.29516 0.7967,0.35787 1.52095,0.65609 2.24522,0.95432"
         id="path97" /><path
         style="fill:none;fill-opacity:1;stroke:#4b4342;stroke-width:0.499999;stroke-linecap:round;stroke-dasharray:none;stroke-opacity:1"
         d="m 139.59609,107.6687 c 0.34936,0.0426 0.69871,0.0852 1.04806,0.12781"
         id="path98" /><path
         style="fill:none;fill-opacity:1;stroke:#4b4342;stroke-width:0.499999;stroke-linecap:round;stroke-dasharray:none;stroke-opacity:1"
         d="m 142.79139,108.35888 c 0.15338,0 0.30675,0 0.46012,0"
         id="path99" /><path
         style="fill:none;fill-opacity:1;stroke:#4b4342;stroke-width:0.499999;stroke-linecap:round;stroke-dasharray:none;stroke-opacity:1"
         d="m 144.65744,108.48669 c 0.85208,0.18746 1.70416,0.37491 2.69259,0.47716 0.98842,0.10224 2.11314,0.11928 3.00783,0.0852 0.89469,-0.0341 1.5593,-0.11929 2.34322,-0.41327 0.78392,-0.29397 1.68711,-0.79669 2.59031,-1.29942"
         id="path100" /><path
         style="fill:none;fill-opacity:1;stroke:#4b4342;stroke-width:0.499999;stroke-linecap:round;stroke-dasharray:none;stroke-opacity:1"
         d="m 138.62583,108.71428 c 0.57373,0.4807 1.14746,0.96139 1.75221,1.31028 0.60475,0.34889 1.24049,0.56598 1.86075,0.69778 0.62026,0.13181 1.22499,0.17832 1.94604,0.22484 0.72105,0.0465 1.55837,0.093 2.31042,0.12405 0.75206,0.031 1.41882,0.0465 2.12436,0.008 0.70553,-0.0388 1.44983,-0.13181 2.05457,-0.27137 0.60475,-0.13955 1.06993,-0.32563 1.53512,-0.5117"
         id="path101" /><path
         style="fill:none;fill-opacity:1;stroke:#4b4342;stroke-width:0.499999;stroke-linecap:round;stroke-dasharray:none;stroke-opacity:1"
         d="m 155.32605,110.06333 c 0.69779,0.062 1.39557,0.12405 2.00032,0.0543 0.60475,-0.0698 1.11644,-0.27136 1.86075,-0.48845 0.74431,-0.21709 1.72118,-0.44968 2.64381,-0.68227 0.92263,-0.2326 1.79097,-0.46519 2.51202,-0.65902 0.72104,-0.19383 1.29476,-0.34889 1.90727,-0.44192 0.6125,-0.093 1.26374,-0.12403 2.1321,-0.31786 0.86837,-0.19382 1.95378,-0.55046 2.85315,-0.91486 0.89937,-0.3644 1.61264,-0.73654 2.32593,-1.10869"
         id="path102" /><path
         style="fill:none;fill-opacity:1;stroke:#4b4342;stroke-width:0.499999;stroke-linecap:round;stroke-dasharray:none;stroke-opacity:1"
         d="m 120.76792,120.02864 c 0.16757,0 0.33514,0 0.50271,0"
         id="path103" /><path
         style="fill:none;fill-opacity:1;stroke:#4b4342;stroke-width:0.499999;stroke-linecap:round;stroke-dasharray:none;stroke-opacity:1"
         d="m 122.63089,120.41307 c 0.0493,0.10843 0.0986,0.21686 0.33515,0.276 0.23657,0.0592 0.66041,0.069 1.1582,0.11338 0.49779,0.0444 1.06947,0.12321 1.64118,0.20207"
         id="path104" /><path
         style="fill:none;fill-opacity:1;stroke:#4b4342;stroke-width:0.499999;stroke-linecap:round;stroke-dasharray:none;stroke-opacity:1"
         d="m 126.29769,121.03406 c 0.0296,0.17743 0.0591,0.35486 0.0887,0.53228"
         id="path105" /><path
         style="fill:none;fill-opacity:1;stroke:#4b4342;stroke-width:0.499999;stroke-linecap:round;stroke-dasharray:none;stroke-opacity:1"
         d="m 127.0074,121.53676 c 0.21686,0.01 0.4337,0.0197 0.79841,0.19717 0.36472,0.17743 0.87728,0.52242 1.37999,0.8132 0.50271,0.29078 0.99555,0.52734 1.3307,0.6752 0.33515,0.14786 0.51255,0.207 0.68998,0.26614"
         id="path106" /><path
         style="fill:none;fill-opacity:1;stroke:#4b4342;stroke-width:0.499999;stroke-linecap:round;stroke-dasharray:none;stroke-opacity:1"
         d="m 131.9883,124.00223 c 0.21557,0.005 0.43114,0.01 0.564,0.0401 0.13286,0.0301 0.18298,0.0852 0.23311,0.14035"
         id="path107" /><path
         style="fill:none;fill-opacity:1;stroke:#4b4342;stroke-width:0.499999;stroke-linecap:round;stroke-dasharray:none;stroke-opacity:1"
         d="m 133.59755,124.10751 c 0.0902,0 0.18048,0 0.27071,0"
         id="path108" /><path
         style="fill:none;fill-opacity:1;stroke:#4b4342;stroke-width:0.499999;stroke-linecap:round;stroke-dasharray:none;stroke-opacity:1"
         d="m 152.49515,124.42632 c 0.0608,-0.1114 0.12151,-0.22277 0.20758,-0.26833 0.0861,-0.0456 0.19744,-0.0253 0.27846,-0.0455 0.081,-0.0202 0.13164,-0.081 0.23796,-0.11137 0.10632,-0.0304 0.26834,-0.0304 0.39998,-0.0608 0.13165,-0.0304 0.23289,-0.0911 0.5468,-0.13669 0.3139,-0.0456 0.84043,-0.0759 1.18978,-0.0607 0.34935,0.0152 0.52147,0.0759 0.85056,0.1114 0.3291,0.0354 0.81513,0.0456 1.30117,0.0557"
         id="path109" /><path
         style="fill:none;fill-opacity:1;stroke:#4b4342;stroke-width:0.499999;stroke-linecap:round;stroke-dasharray:none;stroke-opacity:1"
         d="m 158.5099,123.75802 c 0.20252,0 0.40503,0 0.60755,0"
         id="path110" /><path
         style="fill:none;fill-opacity:1;stroke:#4b4342;stroke-width:0.499999;stroke-linecap:round;stroke-dasharray:none;stroke-opacity:1"
         d="m 160.24142,123.72764 c 0,0.10126 0,0.20252 0,0.30378"
         id="path111" /><path
         style="fill:none;fill-opacity:1;stroke:#4b4342;stroke-width:0.499999;stroke-linecap:round;stroke-dasharray:none;stroke-opacity:1"
         d="m 161.69954,124.03142 c 0.21264,0 0.42529,0 0.66831,0 0.24302,0 0.51641,0 0.74931,-0.0202 0.2329,-0.0203 0.42528,-0.0608 0.61768,-0.10126"
         id="path112" /><path
         style="fill:none;fill-opacity:1;stroke:#4b4342;stroke-width:0.499999;stroke-linecap:round;stroke-dasharray:none;stroke-opacity:1"
         d="m 164.88918,123.63651 c 0.21264,0 0.42529,0 0.63793,0"
         id="path113" /><path
         style="fill:none;fill-opacity:1;stroke:#4b4342;stroke-width:0.499999;stroke-linecap:round;stroke-dasharray:none;stroke-opacity:1"
         d="m 141.11542,104.36021 c 0,0.43569 0,0.87138 0.13123,1.44093 0.13124,0.56955 0.39369,1.27293 0.65615,1.97633"
         id="path114" /><path
         style="fill:none;fill-opacity:1;stroke:#4b4342;stroke-width:0.499999;stroke-linecap:round;stroke-dasharray:none;stroke-opacity:1"
         d="m 170.79728,125.45091 c 0.0185,-0.73915 0.0369,-1.47829 0.13856,-2.02341 0.10163,-0.54512 0.28641,-0.89621 0.425,-1.65384 0.13859,-0.75763 0.23099,-1.92176 0.24946,-2.78101 0.0185,-0.85926 -0.0369,-1.41361 0.19403,-2.12504 0.23099,-0.71144 0.74838,-1.57991 1.2935,-2.46689 0.54512,-0.88698 1.11795,-1.79241 1.51524,-2.68863 0.39729,-0.89622 0.61903,-1.78317 0.78534,-2.95658 0.16631,-1.1734 0.27718,-2.63317 0.34621,-3.38513 0.069,-0.75195 0.0962,-0.79594 0.12334,-0.84003"
         id="path115" /><path
         style="fill:none;fill-opacity:1;stroke:#4b4342;stroke-width:0.499999;stroke-linecap:round;stroke-dasharray:none;stroke-opacity:1"
         d="m 180.60676,109.41853 c -0.11384,-0.0213 -0.2277,-0.0427 -0.34154,-0.064"
         id="path116" /><path
         style="fill:none;fill-opacity:1;stroke:#4b4342;stroke-width:0.499999;stroke-linecap:round;stroke-dasharray:none;stroke-opacity:1"
         d="m 179.90235,108.65009 c -0.064,-0.12094 -0.12808,-0.24192 -0.19212,-0.36288"
         id="path117" /><path
         style="fill:none;fill-opacity:1;stroke:#4b4342;stroke-width:0.499999;stroke-linecap:round;stroke-dasharray:none;stroke-opacity:1"
         d="m 179.26197,107.8176 c -0.59057,-0.66172 -1.18113,-1.32344 -1.7468,-1.88199 -0.56567,-0.55855 -1.10642,-1.01392 -1.62584,-1.42305 -0.51942,-0.40913 -1.01748,-0.77201 -1.63296,-1.27008 -0.61548,-0.49807 -1.34833,-1.13132 -1.94246,-1.72545 -0.59413,-0.59413 -1.0495,-1.14911 -1.43728,-1.903341 -0.38779,-0.754227 -0.70797,-1.707652 -0.81836,-2.25277 -0.1104,-0.545117 -0.011,-0.681903 0.15176,-0.709664 0.16277,-0.02776 0.38889,0.0535 0.65212,0.194833 0.26323,0.141332 0.56355,0.342724 0.86387,0.544117"
         id="path118" /><path
         style="fill:none;fill-opacity:1;stroke:#4b4342;stroke-width:0.499999;stroke-linecap:round;stroke-dasharray:none;stroke-opacity:1"
         d="m 172.17121,97.824794 c 0.1272,0 0.2544,0 0.38159,0"
         id="path119" /><path
         style="fill:none;fill-opacity:1;stroke:#4b4342;stroke-width:0.499999;stroke-linecap:round;stroke-dasharray:none;stroke-opacity:1"
         d="m 173.05099,97.973191 c 0,0.14133 0,0.28266 0,0.423987"
         id="path120" /><path
         style="fill:none;fill-opacity:1;stroke:#4b4342;stroke-width:0.499999;stroke-linecap:round;stroke-dasharray:none;stroke-opacity:1"
         d="m 170.36926,96.362032 c -0.33212,-0.314456 -0.66425,-0.628918 -0.92041,-1.12181 -0.25616,-0.492892 -0.43635,-1.164194 -0.48405,-1.794883 -0.0477,-0.63069 0.0371,-1.220729 0.1864,-1.782267 0.14929,-0.561539 0.36307,-1.094543 0.74578,-1.593773 0.38271,-0.499229 0.93432,-0.964652 1.5075,-1.378376 0.57318,-0.413723 1.16789,-0.775721 1.6678,-0.99982 0.49992,-0.224098 0.90501,-0.310288 1.43509,-0.323216 0.53009,-0.01293 1.18513,0.0474 1.90915,0.10343 0.72401,0.05603 1.51695,0.107739 2.2108,0.189622 0.69385,0.08188 1.28856,0.19393 1.66349,0.288739 0.37493,0.09481 0.53008,0.172385 0.68522,0.249956"
         id="path121" /><path
         style="fill:none;fill-opacity:1;stroke:#4b4342;stroke-width:0.499999;stroke-linecap:round;stroke-dasharray:none;stroke-opacity:1"
         d="m 176.63198,100.27504 c -0.42233,-0.405092 -0.84467,-0.810193 -1.17651,-1.28856 -0.33184,-0.478368 -0.57317,-1.029981 -0.69384,-1.629018 -0.12067,-0.599037 -0.12067,-1.245461 0.0215,-1.878973 0.14222,-0.633513 0.42665,-1.25408 0.68091,-1.646251 0.25427,-0.392172 0.47836,-0.555931 0.70246,-0.719697"
         id="path122" /><path
         style="fill:none;fill-opacity:1;stroke:#4b4342;stroke-width:0.499999;stroke-linecap:round;stroke-dasharray:none;stroke-opacity:1"
         d="m 176.70956,92.802254 c 0,-0.189622 0,-0.379243 0,-0.568865"
         id="path123" /><path
         style="fill:none;fill-opacity:1;stroke:#4b4342;stroke-width:0.499999;stroke-linecap:round;stroke-dasharray:none;stroke-opacity:1"
         d="m 177.51114,92.672965 c 0.39648,-0.172382 0.79296,-0.344765 1.18944,-0.448194 0.39648,-0.10343 0.79296,-0.137906 1.15065,-0.155145 0.3577,-0.01724 0.6766,-0.01724 0.99551,-0.01724"
         id="path124" /><path
         style="fill:none;fill-opacity:1;stroke:#4b4342;stroke-width:0.499999;stroke-linecap:round;stroke-dasharray:none;stroke-opacity:1"
         d="m 181.38975,92.362678 c 0.10343,0.06033 0.20686,0.120668 0.31029,0.181001"
         id="path125" /><path
         style="fill:none;fill-opacity:1;stroke:#4b4342;stroke-width:0.499999;stroke-linecap:round;stroke-dasharray:none;stroke-opacity:1"
         d="m 177.27842,100.94734 c 0.0862,0.0517 0.17238,0.10343 0.25857,0.15514"
         id="path126" /><path
         style="fill:none;fill-opacity:1;stroke:#4b4342;stroke-width:0.499999;stroke-linecap:round;stroke-dasharray:none;stroke-opacity:1"
         d="m 178.00243,101.59377 c 0.15514,0.0862 0.31029,0.17239 0.46543,0.25858"
         id="path127" /><path
         style="fill:#fdbeba;fill-opacity:1;stroke:#ce9a99;stroke-width:0.499999;stroke-linecap:round;stroke-dasharray:none;stroke-opacity:1"
         d="m 138.13595,101.94091 c 0.49188,0.4162 1.47565,1.24862 2.03187,1.70268 0.55621,0.45405 0.68484,0.52971 0.87781,0.46539 0.19297,-0.0643 0.45026,-0.26864 0.8135,-0.54864 0.36324,-0.28 0.83241,-0.63566 1.1843,-0.88917 0.35189,-0.25351 0.58648,-0.40486 0.69915,-0.49399 0.11267,-0.0891 0.10336,-0.11623 -0.021,-0.19261 -0.12439,-0.0764 -0.36393,-0.20224 -0.66438,-0.3078 -0.30046,-0.10557 -0.66179,-0.19083 -1.26472,-0.27609 -0.60293,-0.0853 -1.44741,-0.17052 -2.16402,-0.24563 -0.71661,-0.0751 -1.30531,-0.14008 -1.63622,-0.16241 -0.33091,-0.0223 -0.40397,-0.002 -0.41902,0.0938 -0.0151,0.0958 0.0279,0.26706 0.0494,0.35269 0.0215,0.0856 0.0215,0.0856 0.51334,0.50182 z"
         id="path129" /><path
         style="fill:#4d494d;fill-opacity:1;stroke:#171116;stroke-width:0.499999;stroke-linecap:round;stroke-dasharray:none;stroke-opacity:1"
         d="m 171.71245,87.837875 c -0.47402,-0.158005 -1.42205,-0.289675 -3.43665,-0.421348 -2.0146,-0.131673 -5.09565,-0.263342 -7.81469,-0.204088 -2.71903,0.05925 -5.0759,0.309426 -6.96539,0.684694 -1.8895,0.375267 -3.31152,0.875607 -4.54266,1.198202 -1.23113,0.322596 -2.27131,0.467431 -3.49587,0.533267 -1.22456,0.06584 -2.63341,0.05267 -4.02914,-0.138257 -1.39573,-0.190927 -2.77825,-0.559598 -4.60192,-1.270634 -1.82367,-0.711035 -4.08837,-1.764386 -5.93836,-2.5215 -1.85,-0.757114 -3.28519,-1.217954 -4.29248,-1.501048 -1.00729,-0.283094 -1.58663,-0.388429 -1.78413,-0.743946 -0.19751,-0.355516 -0.0132,-0.961194 0.17117,-1.37596 0.18434,-0.414766 0.36868,-0.638603 0.4411,-0.915116 0.0724,-0.276514 0.0329,-0.605684 -0.19751,-0.737356 -0.23043,-0.131672 -0.65177,-0.06584 -1.33647,0.118505 -0.6847,0.184343 -1.63272,0.487182 -2.42934,0.842698 -0.79661,0.355516 -1.44179,0.763691 -1.83022,1.27063 -0.38843,0.506939 -0.5201,1.112615 -0.60569,2.060661 -0.0856,0.948046 -0.12508,2.238398 -0.11191,3.133765 0.0132,0.895368 0.079,1.395713 0.39501,2.185751 0.31602,0.790038 0.88219,1.869719 1.37597,2.72559 0.49377,0.85587 0.91511,1.487878 1.4813,2.100154 0.56619,0.612275 1.2772,1.204784 1.99482,1.784146 0.71762,0.579362 1.44179,1.145534 2.37667,1.639307 0.93488,0.493773 2.08039,0.91511 3.27203,1.158702 1.19164,0.243593 2.42932,0.309427 3.4432,0.230421 1.01388,-0.07901 1.80389,-0.302843 2.51492,-0.697862 0.71103,-0.39502 1.34304,-0.961194 1.9224,-1.560303 0.57935,-0.599108 1.10603,-1.231121 1.48788,-1.823648 0.38185,-0.592527 0.61885,-1.14553 0.89536,-1.560297 0.27651,-0.414766 0.59252,-0.691273 0.86245,-0.86903 0.26993,-0.177758 0.49376,-0.256757 0.73077,-0.223836 0.23702,0.03292 0.48718,0.177751 0.7637,0.467432 0.27651,0.289681 0.57935,0.724189 0.90195,1.171877 0.3226,0.447687 0.66493,0.908523 1.05995,1.448383 0.39502,0.539859 0.84269,1.158701 1.32329,1.731476 0.48061,0.572775 0.99412,1.09945 1.61957,1.619555 0.62544,0.520106 1.36279,1.033618 2.15941,1.435218 0.79661,0.4016 1.65246,0.69127 2.79143,0.86244 1.13897,0.17118 2.56099,0.22384 3.54195,0.17117 0.98095,-0.0527 1.52079,-0.21067 2.35033,-0.4016 0.82954,-0.19092 1.94873,-0.41476 3.11403,-0.79003 1.1653,-0.37527 2.37665,-0.901939 3.64729,-1.435213 1.27065,-0.533275 2.6005,-1.073115 3.43003,-1.39571 0.82953,-0.322595 1.1587,-0.42793 1.71173,-1.968514 0.55303,-1.540583 1.32987,-4.516293 1.7183,-6.09635 0.38843,-1.580057 0.38843,-1.764392 -0.0856,-1.922398 z"
         id="path130" /><path
         style="fill:#453d48;fill-opacity:1;stroke:#3e3641;stroke-width:0.499999;stroke-linecap:round;stroke-dasharray:none;stroke-opacity:1"
         d="m 120.30118,84.813448 c -0.17855,0.34595 -0.34595,0.937415 -0.31804,1.75208 0.0279,0.814666 0.25109,1.852492 0.70864,2.923831 0.45755,1.071339 1.14944,2.176129 1.93062,3.124708 0.78119,0.948579 1.65162,1.740895 2.51093,2.39932 0.8593,0.658426 1.70742,1.182922 2.39374,1.567933 0.68633,0.385012 1.21082,0.630518 1.77439,0.825814 0.56357,0.195295 1.16618,0.340368 1.67953,0.412906 0.51335,0.07254 0.9374,0.07254 1.51771,0.06696 0.58031,-0.0056 1.31684,-0.01674 2.09802,-0.223199 0.78119,-0.206459 1.60698,-0.608195 2.26541,-1.115968 0.65843,-0.507773 1.14944,-1.12154 1.56793,-1.763228 0.41849,-0.641687 0.76443,-1.311255 0.96531,-1.947361 0.20087,-0.636105 0.25667,-1.238714 0.18413,-1.562346 -0.0725,-0.323631 -0.27341,-0.36827 -0.88162,-0.574727 -0.60821,-0.206456 -1.62372,-0.574717 -3.09124,-1.205247 -1.46751,-0.630529 -3.38694,-1.523287 -5.5073,-2.382588 -2.12035,-0.859301 -4.44152,-1.685101 -6.01504,-2.153808 -1.57352,-0.468707 -2.39932,-0.580302 -2.90709,-0.585882 -0.50776,-0.0056 -0.69747,0.09486 -0.87603,0.440804 z"
         id="path131" /><path
         style="fill:#453d48;fill-opacity:1;stroke:#3e3641;stroke-width:0.499999;stroke-linecap:round;stroke-dasharray:none;stroke-opacity:1"
         d="m 145.15934,92.13419 c 0.19529,0.569144 0.58588,1.707429 1.20525,2.762027 0.61937,1.054597 1.46749,2.025472 2.20961,2.717373 0.74212,0.691902 1.37821,1.104802 2.31564,1.473074 0.93742,0.368272 2.17612,0.691896 3.49855,0.786751 1.32244,0.09486 2.72853,-0.03906 4.3467,-0.385014 1.61817,-0.345955 3.44831,-0.903924 5.22272,-1.556772 1.7744,-0.652847 3.49296,-1.400533 4.52523,-1.8804 1.03227,-0.479868 1.37821,-0.691896 1.64604,-1.12155 0.26784,-0.429653 0.45755,-1.076901 0.5803,-1.992005 0.12276,-0.915105 0.17856,-2.098004 -0.0112,-2.695047 -0.18972,-0.597043 -0.62493,-0.608203 -1.26104,-0.652843 -0.63611,-0.04464 -1.47307,-0.122756 -2.85689,-0.212035 -1.38381,-0.08928 -3.3144,-0.189713 -5.47382,-0.228771 -2.15942,-0.03906 -4.54754,-0.01674 -6.82413,0.189718 -2.27659,0.206458 -4.44152,0.597039 -5.98715,0.959731 -1.54562,0.362693 -2.47186,0.697477 -2.92382,0.903927 -0.45196,0.20645 -0.42963,0.284558 -0.41846,0.323625 0.0112,0.03907 0.0111,0.03907 0.20643,0.608211 z"
         id="path132" /><path
         style="fill:none;fill-opacity:1;stroke:#171116;stroke-width:0.499999;stroke-linecap:round;stroke-dasharray:none;stroke-opacity:1"
         d="m 121.37337,82.945056 c 1.12675,0.256978 2.25351,0.513958 3.38027,0.770938"
         id="path133" /><path
         style="fill:#ffecf0;fill-opacity:1;stroke:none;stroke-width:0.499999;stroke-linecap:round;stroke-dasharray:none;stroke-opacity:1"
         d="m 176.23085,69.920209 c 0.13027,-0.07057 0.39082,-0.211699 0.70023,-0.265981 0.30941,-0.05428 0.66766,-0.02171 0.83051,0.222562 0.16284,0.244273 0.13028,0.700226 0.17371,0.977067 0.0434,0.276841 0.16284,0.374542 0.15198,0.629669 -0.0109,0.255128 -0.15198,0.667662 -0.29311,0.966213 -0.14114,0.298552 -0.28227,0.483106 -0.45597,0.629668 -0.17371,0.146562 -0.37997,0.25512 -0.61338,0.309402 -0.23342,0.05428 -0.49397,0.05428 -0.75995,0.189988 -0.26598,0.135707 -0.53739,0.407113 -0.9065,0.607955 -0.36912,0.200842 -0.83594,0.331116 -1.16706,0.227977 -0.33112,-0.10314 -0.52653,-0.43968 -0.58624,-0.656808 -0.0597,-0.217129 0.0163,-0.314833 0.29855,-0.434252 0.28227,-0.11942 0.7708,-0.26055 0.95536,-0.488537 0.18456,-0.227988 0.0651,-0.542812 0.11942,-0.759939 0.0543,-0.217126 0.28226,-0.336545 0.45596,-0.531964 0.1737,-0.195419 0.29312,-0.466818 0.44511,-0.738231 0.152,-0.271412 0.33655,-0.542813 0.42883,-0.678516 0.0923,-0.135704 0.0923,-0.135706 0.22255,-0.206273 z"
         id="path136" /><path
         style="fill:none;fill-opacity:1;stroke:#4b4342;stroke-width:0.499999;stroke-linecap:round;stroke-dasharray:none;stroke-opacity:1"
         d="m 127.01578,53.144083 c 0.94647,1.940257 1.89293,3.880511 3.47829,6.262481 1.58535,2.381969 3.8095,5.205536 6.0337,8.029163"
         id="path79" /><path
         style="fill:none;fill-opacity:1;stroke:#4b4342;stroke-width:0.499999;stroke-linecap:round;stroke-dasharray:none;stroke-opacity:1"
         d="m 179.59198,60.005965 c -0.42591,0.709847 -0.85181,1.419697 -1.44336,2.239979 -0.59155,0.820282 -1.34871,1.750955 -2.27941,2.760531 -0.93071,1.009576 -2.0349,2.097989 -3.2732,3.162773 -1.23831,1.064784 -2.61066,2.105878 -3.78586,2.949817 -1.17521,0.843939 -2.15321,1.49068 -3.13122,2.137429"
         id="path80" /><path
         style="fill:none;fill-opacity:1;stroke:#4b4342;stroke-width:0.499999;stroke-linecap:round;stroke-dasharray:none;stroke-opacity:1"
         d="m 168.64806,66.152508 c 0.0524,0.198949 0.1047,0.397878 0.0628,0.544464 -0.0419,0.146585 -0.178,0.240824 -0.24605,0.31935 -0.0681,0.07853 -0.0681,0.141351 -0.021,0.183229 0.0471,0.04188 0.14137,0.06283 0.18848,0.193708 0.0471,0.130883 0.0471,0.371699 0.0419,0.659642 -0.005,0.287942 -0.0157,0.622987 -0.0366,0.842869 -0.0209,0.219883 -0.0523,0.324587 -0.0837,0.42929"
         id="path81" /><path
         style="fill:none;fill-opacity:1;stroke:#4b4342;stroke-width:0.499999;stroke-linecap:round;stroke-dasharray:none;stroke-opacity:1"
         d="m 175.77846,69.733413 c 0,0.272233 0,0.544465 -0.0419,0.774823 -0.0419,0.230358 -0.12564,0.418812 -0.16752,0.581105 -0.0419,0.162294 -0.0419,0.298408 -0.16229,0.418819 -0.12042,0.120411 -0.36124,0.225115 -0.534,0.308879 -0.17277,0.08376 -0.27747,0.146587 -0.22511,0.28794 0.0523,0.141352 0.26176,0.361229 0.21464,0.544464 -0.0471,0.183234 -0.35076,0.329817 -1.07847,0.455465 -0.72771,0.125647 -1.87944,0.23035 -3.0312,0.335056"
         id="path82" /><path
         style="fill:none;fill-opacity:1;stroke:#4b4342;stroke-width:0.499999;stroke-linecap:round;stroke-dasharray:none;stroke-opacity:1"
         d="m 176.62657,74.256661 c -0.62823,0.272232 -1.25646,0.544465 -1.77999,0.717228 -0.52353,0.172764 -0.94234,0.246056 -1.36116,0.319349"
         id="path83" /><path
         style="fill:none;fill-opacity:1;stroke:#4b4342;stroke-width:0.499999;stroke-linecap:round;stroke-dasharray:none;stroke-opacity:1"
         d="m 174.522,77.774743 c 0.14659,0 0.29317,0 0.43976,0"
         id="path84" /><path
         style="fill:none;fill-opacity:1;stroke:#4b4342;stroke-width:0.499999;stroke-linecap:round;stroke-dasharray:none;stroke-opacity:1"
         d="m 173.57966,78.685675 c 0.16752,0.03141 0.33505,0.06282 0.50258,0.09423"
         id="path85" /><path
         style="fill:none;fill-opacity:1;stroke:#4b4342;stroke-width:0.499999;stroke-linecap:round;stroke-dasharray:none;stroke-opacity:1"
         d="m 172.63731,80.224835 c 0,0.136118 0,0.272233 -0.0471,0.408342 -0.0471,0.13611 -0.14136,0.272242 -0.27747,0.460712 -0.13612,0.18847 -0.31412,0.429289 -0.34553,0.701522 -0.0314,0.272232 0.0838,0.575871 0.14135,0.853343 0.0576,0.277472 0.0576,0.528757 -0.16753,0.764345 -0.22512,0.235588 -0.67534,0.455464 -1.02087,0.612523 -0.34553,0.157059 -0.58634,0.251288 -0.82717,0.345525"
         id="path86" /><path
         style="fill:none;fill-opacity:1;stroke:#4b4342;stroke-width:0.499999;stroke-linecap:round;stroke-dasharray:none;stroke-opacity:1"
         d="m 138.26753,60.355252 c -0.30927,-0.02379 -0.61854,-0.04758 -0.77318,-0.02379 -0.15463,0.02379 -0.15463,0.09516 -0.21014,0.130845 -0.0555,0.03568 -0.16653,0.03568 -0.22204,0.122915 -0.0555,0.08723 -0.0555,0.261691 -0.0555,0.3965 0,0.134809 0,0.229969 -0.0436,0.277549 -0.0436,0.04758 -0.13086,0.04758 -0.17448,0.09119 -0.0436,0.04362 -0.0436,0.130846 -0.1467,0.174462 -0.10309,0.04361 -0.30927,0.04361 -0.40839,0.111023 -0.0991,0.06741 -0.0912,0.202215 -0.11498,0.344953 -0.0238,0.142738 -0.0793,0.293409 -0.0317,0.491661 0.0476,0.198252 0.19825,0.444077 0.34892,0.689907"
         id="path87" /><path
         style="fill:none;fill-opacity:1;stroke:#4b4342;stroke-width:0.499999;stroke-linecap:round;stroke-dasharray:none;stroke-opacity:1"
         d="m 131.81059,72.43718 c -0.0404,0.364 -0.0809,0.728012 -0.0607,1.031354 0.0202,0.303341 0.10111,0.546004 0.13482,0.896534 0.0337,0.35053 0.0203,0.8089 0.0135,1.381878 -0.007,0.572978 -0.007,1.26053 -0.0269,1.732388 -0.0202,0.471858 -0.0607,0.728016 -0.007,0.883056 0.0539,0.155039 0.20222,0.208963 0.35052,0.262891"
         id="path88" /><path
         style="fill:none;fill-opacity:1;stroke:#4b4342;stroke-width:0.499999;stroke-linecap:round;stroke-dasharray:none;stroke-opacity:1"
         d="m 132.21504,80.890207 c 0,0.269634 0,0.539268 0.0539,0.70105 0.0539,0.161783 0.16178,0.215707 0.25615,0.276376 0.0944,0.06067 0.17526,0.128073 0.25615,0.195482"
         id="path89" /><path
         style="fill:none;fill-opacity:1;stroke:#4b4342;stroke-width:0.499999;stroke-linecap:round;stroke-dasharray:none;stroke-opacity:1"
         d="m 134.05759,82.950411 c 0.081,0.05401 0.16205,0.108033 0.24308,0.162052"
         id="path90" /><path
         style="fill:none;fill-opacity:1;stroke:#4b4342;stroke-width:0.499999;stroke-linecap:round;stroke-dasharray:none;stroke-opacity:1"
         d="m 136.73145,83.254259 c 0.29709,-0.216068 0.59419,-0.43214 0.74612,-0.668471 0.15193,-0.236331 0.15869,-0.492901 0.28024,-0.76299 0.12155,-0.27009 0.35787,-0.553674 0.67523,-0.817013 0.31736,-0.263339 0.71573,-0.506413 1.03983,-0.648208 0.32411,-0.141795 0.57393,-0.182306 0.69885,-0.303848 0.12491,-0.121541 0.12491,-0.324104 0.12153,-0.492915 -0.003,-0.168812 -0.0102,-0.303838 0.22279,-0.543545 0.23295,-0.239706 0.70559,-0.58406 1.03307,-0.790002 0.32749,-0.205943 0.50979,-0.273461 0.61783,-0.506417 0.10803,-0.232955 0.14179,-0.63132 0.41526,-1.06009 0.27347,-0.428769 0.78662,-0.887903 1.23565,-1.218762 0.44902,-0.330859 0.83388,-0.533419 1.2694,-0.638081 0.43552,-0.104663 0.92167,-0.111419 1.28967,-0.351127 0.36799,-0.239707 0.61782,-0.712353 0.76974,-1.026327 0.15193,-0.313975 0.20594,-0.469276 0.39501,-0.671844 0.18906,-0.202568 0.51316,-0.452395 0.82376,-0.729236 0.3106,-0.276841 0.60769,-0.58068 0.75624,-0.955432 0.14855,-0.374751 0.14855,-0.820386 0.14855,-1.266029"
         id="path91" /><path
         style="fill:none;fill-opacity:1;stroke:#4b4342;stroke-width:0.499999;stroke-linecap:round;stroke-dasharray:none;stroke-opacity:1"
         d="m 150.46536,69.520344 c 0.081,0.283584 0.16205,0.567181 0.20257,0.820391 0.0405,0.253209 0.0405,0.476028 0.0405,0.698849"
         id="path92" /><path
         style="fill:none;fill-opacity:1;stroke:#4b4342;stroke-width:0.499999;stroke-linecap:round;stroke-dasharray:none;stroke-opacity:1"
         d="m 151.33171,71.241459 c 0,0.15037 0,0.300741 0,0.451114"
         id="path93" /><path
         style="fill:none;fill-opacity:1;stroke:#4b4342;stroke-width:0.499999;stroke-linecap:round;stroke-dasharray:none;stroke-opacity:1"
         d="m 151.85223,72.161039 c 0.12724,0.352791 0.25447,0.705587 0.29206,1.101761 0.0376,0.396174 -0.0145,0.835719 0.0289,1.16249 0.0434,0.326771 0.18218,0.540757 0.28629,0.855964 0.1041,0.315207 0.1735,0.731611 0.13591,1.075733 -0.0376,0.344122 -0.18218,0.615943 -0.3528,0.861747 -0.17062,0.245804 -0.36725,0.46557 -0.48002,0.656428 -0.11277,0.190859 -0.14167,0.352794 -0.10986,0.462674 0.0318,0.10988 0.12436,0.16773 0.15616,0.436667 0.0318,0.268937 0.003,0.748958 -0.0116,1.130675 -0.0145,0.381718 -0.0145,0.665105 0.0954,0.861746 0.10989,0.196642 0.32966,0.306527 0.56679,0.399064 0.23713,0.09254 0.4916,0.167721 0.71715,0.24869 0.22556,0.08097 0.4222,0.167722 0.57546,0.231341 0.15327,0.06362 0.26315,0.104103 0.3181,0.251585 0.0549,0.147483 0.0549,0.401954 0.20242,0.52919 0.14749,0.127237 0.44244,0.127237 0.65932,0.205318 0.21689,0.07808 0.35569,0.234232 0.41352,0.47425 0.0578,0.240018 0.0347,0.563893 0.24178,0.984338 0.20708,0.420446 0.64435,0.937438 1.08162,1.454438"
         id="path94" /><path
         style="fill:none;fill-opacity:1;stroke:#4b4342;stroke-width:0.499999;stroke-linecap:round;stroke-dasharray:none;stroke-opacity:1"
         d="m 177.99554,74.334589 c 0.19403,-0.601508 0.38807,-1.203017 0.57628,-1.717212 0.18822,-0.514195 0.37061,-0.941063 0.553,-1.367936"
         id="path128" /><path
         style="fill:#ffecf0;fill-opacity:1;stroke:#4b4342;stroke-width:0.482368;stroke-linecap:round;stroke-dasharray:none;stroke-opacity:1"
         d="m 131.38167,61.212086 c -0.27889,-0.311874 -0.21892,-0.08397 -0.21292,0.08997 0.006,0.173938 -0.042,0.293895 -0.12595,0.389852 -0.084,0.09596 -0.20392,0.167928 -0.34486,0.212911 -0.14095,0.04498 -0.30289,0.06298 -0.41386,0.08397 -0.11096,0.021 -0.17092,0.04498 -0.12893,0.137942 0.042,0.09296 0.18592,0.254896 0.30888,0.398842 0.12295,0.143946 0.22491,0.269895 0.29688,0.401847 0.072,0.131952 0.11396,0.2699 0.13495,0.425837 0.021,0.155937 0.021,0.329863 -0.015,0.461821 -0.036,0.131958 -0.10795,0.221901 -0.17993,0.317874 -0.072,0.09597 -0.14394,0.197916 -0.11095,0.299877 0.033,0.101962 0.17093,0.203919 0.32088,0.296885 0.14994,0.09297 0.31187,0.176929 0.42883,0.278897 0.11696,0.101968 0.18892,0.221906 0.41084,0.200911 0.22192,-0.02099 0.59376,-0.182924 0.95063,-0.35086 0.35686,-0.167936 0.69872,-0.341865 0.82467,-0.488817 0.12594,-0.146953 0.036,-0.266885 -0.10496,-0.452817 -0.14095,-0.185932 -0.33287,-0.437829 -0.73771,-0.98962 -0.40485,-0.551791 -1.0226,-1.403444 -1.30149,-1.715319 z"
         id="path137"
         transform="matrix(1.0365527,0,0,1.0365527,-4.891831,-2.3927878)" /></g></g></svg>
