<?xml version="1.0" encoding="UTF-8" standalone="no"?>
<!-- Created with Inkscape (http://www.inkscape.org/) -->

<svg
   width="51.389458mm"
   height="95.9814mm"
   viewBox="0 0 51.389458 95.9814"
   version="1.1"
   id="svg1"
   xml:space="preserve"
   xmlns="http://www.w3.org/2000/svg"
   xmlns:svg="http://www.w3.org/2000/svg"><defs
     id="defs1" /><g
     id="layer1"
     transform="translate(-121.18129,-169.09132)"><g
       id="g170"><path
         style="opacity:1;fill:#b89671;fill-opacity:1;stroke:#000000;stroke-width:1.00735;stroke-linecap:round;stroke-dasharray:none;stroke-opacity:1"
         d="m 128.42071,233.42841 c -0.64321,-0.2105 -1.62558,0.32746 -2.67812,1.01746 -1.05254,0.69 -2.17522,1.53201 -2.99386,2.19862 -0.81865,0.66661 -1.33321,1.15778 -1.68405,1.73084 -0.35085,0.57305 -0.53796,1.22794 -0.37423,1.87116 0.16373,0.64323 0.67829,1.27474 1.28643,1.71914 0.60814,0.4444 1.30981,0.70168 1.87117,0.74846 0.56135,0.0468 0.98236,-0.11694 1.61388,-0.32745 0.63153,-0.21051 1.47354,-0.46779 2.0349,-0.64322 0.56136,-0.17542 0.84202,-0.26897 1.15778,-0.57304 0.31576,-0.30407 0.6666,-0.81864 0.84203,-1.78932 0.17542,-0.97068 0.17542,-2.39742 0.0234,-3.5903 -0.15203,-1.19288 -0.45609,-2.15184 -1.09931,-2.36235 z"
         id="path142"
         transform="matrix(0.99270441,0,0,0.99270441,1.930886,1.4426069)" /><path
         style="opacity:1;fill:#b89671;fill-opacity:1;stroke:#000000;stroke-width:1;stroke-linecap:round;stroke-dasharray:none;stroke-opacity:1"
         d="m 145.00395,253.36807 c -0.0351,0.33915 -0.10525,1.01745 0.26899,2.12847 0.37425,1.11102 1.19287,2.65471 2.02321,4.18675 0.83034,1.53203 1.67235,3.05232 2.4793,3.92944 0.80695,0.87711 1.57878,1.11101 2.73659,1.21626 1.1578,0.10525 2.70148,0.0819 3.64877,0.0234 0.94729,-0.0585 1.29812,-0.15204 1.7893,-0.7251 0.49119,-0.57305 1.1227,-1.62556 1.40337,-2.4676 0.28068,-0.84203 0.21051,-1.47354 -0.18712,-2.09337 -0.39763,-0.61983 -1.12269,-1.22795 -1.73083,-2.10507 -0.60813,-0.87712 -1.09931,-2.02319 -1.50863,-3.35641 -0.40932,-1.33323 -0.73677,-2.85352 -1.19287,-3.90606 -0.4561,-1.05254 -1.04083,-1.63727 -2.24541,-1.53201 -1.20459,0.10526 -3.02894,0.90049 -4.37386,1.74253 -1.34491,0.84204 -2.2103,1.73082 -2.64301,2.17523 -0.43271,0.4444 -0.43271,0.44443 -0.4678,0.78358 z"
         id="path144"
         transform="translate(-0.11000593,-0.3300178)" /><path
         style="opacity:1;fill:#b89671;fill-opacity:1;stroke:#000000;stroke-width:0.991412;stroke-linecap:round;stroke-dasharray:none;stroke-opacity:1"
         d="m 128.84173,249.30997 c -0.12865,0.70169 -0.38593,2.10506 -0.52628,3.82422 -0.14034,1.71916 -0.16374,3.75401 -0.17544,5.37961 -0.0117,1.62559 -0.0117,2.84182 -0.0468,3.54352 -0.0351,0.70169 -0.10525,0.8888 1e-5,1.28643 0.10526,0.39763 0.38592,1.00574 1.48526,1.20456 1.09933,0.19881 3.01724,-0.0117 4.39724,-0.30407 1.37999,-0.29238 2.222,-0.6666 2.70149,-1.1344 0.47949,-0.4678 0.59643,-1.02914 0.92389,-2.26881 0.32746,-1.23967 0.86542,-3.15758 1.30982,-4.53758 0.44441,-1.37999 0.79525,-2.222 0.58473,-2.64301 -0.21051,-0.42101 -0.98236,-0.42101 -1.94135,-0.53796 -0.95898,-0.11696 -2.10504,-0.35085 -3.20437,-0.80695 -1.09932,-0.45611 -2.15183,-1.13439 -3.04064,-1.78931 -0.88882,-0.65491 -1.61388,-1.28642 -1.97642,-1.60218 -0.36254,-0.31576 -0.36251,-0.31576 -0.49115,0.38593 z"
         id="path143"
         transform="matrix(0.99962169,0,0,1.0177852,0.16062372,-5.1486685)" /><path
         style="opacity:1;fill:#ffe75f;fill-opacity:1;stroke:#000000;stroke-width:1.6;stroke-linecap:round;stroke-dasharray:none;stroke-opacity:1"
         d="m 142.29265,184.04363 c 1.08146,0.45286 3.24437,1.35858 6.17786,2.91996 2.93349,1.56137 6.6374,3.77831 8.71921,5.19097 2.08181,1.41266 2.54142,2.02097 2.86586,2.66309 0.32444,0.64212 0.51369,1.31802 1.197,6.99393 0.68331,5.6759 1.86064,16.35137 2.42435,22.2758 0.56372,5.92443 0.5138,7.09756 0.20179,8.7325 -0.31202,1.63494 -0.8861,3.73158 -1.54756,5.47884 -0.66147,1.74725 -1.41027,3.14502 -2.2839,4.46794 -0.87363,1.32292 -1.87203,2.57093 -2.84551,3.50696 -0.97347,0.93603 -1.92195,1.56003 -2.62796,1.92886 -0.70601,0.36883 -1.16951,0.48247 -2.14079,0.75915 -0.97129,0.27669 -2.4503,0.71639 -3.70949,1.30935 -1.2592,0.59295 -2.2985,1.33912 -3.03137,1.85212 -0.73286,0.51301 -1.15924,0.79282 -1.75886,0.94605 -0.59962,0.15322 -1.37243,0.17986 -2.33849,0.18651 -0.96605,0.007 -2.12527,-0.007 -3.37114,-0.11995 -1.24588,-0.11327 -2.57832,-0.32646 -3.67762,-0.71954 -1.09929,-0.39309 -1.96537,-0.96603 -2.78485,-1.66559 -0.81948,-0.69955 -1.59229,-1.52567 -2.20524,-2.51837 -0.61294,-0.9927 -1.06597,-2.15192 -1.33246,-2.93808 -0.2665,-0.78616 -0.34644,-1.19922 -0.20653,-1.70557 0.13991,-0.50634 0.49967,-1.10594 0.85944,-1.80549 0.35977,-0.69956 0.71953,-1.49902 0.90608,-2.57833 0.18655,-1.07932 0.19989,-2.43841 0.02,-4.73029 -0.17988,-2.29188 -0.55297,-5.51639 -1.2925,-10.94628 -0.73953,-5.42988 -1.84546,-13.06478 -2.39843,-17.98828 -0.55298,-4.92349 -0.55298,-7.13534 -0.0799,-9.16071 0.47303,-2.02537 1.41907,-3.86414 2.41843,-5.66299 0.99936,-1.79885 2.05199,-3.55768 2.98473,-4.65697 0.93274,-1.09929 1.74553,-1.539 3.35497,-1.84049 1.60945,-0.30149 4.01544,-0.46476 5.21846,-0.5464 1.20302,-0.0816 1.203,-0.0816 2.28446,0.3713 z"
         id="path140" /><path
         style="opacity:1;fill:#b89671;fill-opacity:1;stroke:#000000;stroke-width:1;stroke-linecap:round;stroke-dasharray:none;stroke-opacity:1"
         d="m 162.48769,229.80302 c -0.37423,0.49119 -1.1227,1.47355 -1.62558,2.67813 -0.50288,1.20458 -0.76016,2.63132 -0.63151,3.46165 0.12865,0.83034 0.64321,1.06423 1.34491,1.41508 0.7017,0.35085 1.59048,0.81863 2.53777,1.52033 0.94729,0.7017 1.95303,1.63726 2.74828,2.09336 0.79525,0.45609 1.37998,0.43269 1.94134,0.23387 0.56136,-0.19883 1.09931,-0.57305 1.59049,-1.02916 0.49119,-0.4561 0.93558,-0.99405 1.21626,-1.52032 0.28067,-0.52627 0.39762,-1.04083 0.44439,-1.73083 0.0468,-0.69001 0.0234,-1.55541 -0.42104,-2.44422 -0.44441,-0.88882 -1.30981,-1.80099 -2.23371,-2.56116 -0.9239,-0.76017 -1.90625,-1.36829 -3.00557,-1.77761 -1.09932,-0.40932 -2.31556,-0.61982 -2.92369,-0.72508 -0.60813,-0.10525 -0.6081,-0.10522 -0.98234,0.38596 z"
         id="path141" /><path
         style="opacity:1;fill:#513c27;fill-opacity:1;stroke:#4e3b25;stroke-width:0.499999;stroke-linecap:round;stroke-dasharray:none;stroke-opacity:1"
         d="m 132.36523,245.24889 c 0.0265,-0.21109 0.0795,-0.63327 0.24071,-1.0696 0.16123,-0.43632 0.4307,-0.88678 0.7223,-1.26084 0.2916,-0.37405 0.60531,-0.67167 0.83859,-0.86473 0.23329,-0.19306 0.38611,-0.28154 0.47257,-0.31372 0.0865,-0.0322 0.1066,-0.008 0.16893,0.13074 0.0623,0.13876 0.1669,0.39214 0.31371,0.92506 0.1468,0.53293 0.33584,1.34537 0.46052,1.8622 0.12468,0.51682 0.18501,0.73804 0.25338,0.8406 0.0684,0.10255 0.14479,0.0864 0.38813,0.0784 0.24334,-0.008 0.65357,-0.008 1.11008,-0.0121 0.45651,-0.004 0.95925,-0.0121 1.37151,0.0181 0.41226,0.0302 0.73402,0.0985 1.01958,0.21116 0.28557,0.11262 0.53493,0.26948 0.67772,0.364 0.1428,0.0945 0.17896,0.12666 0.12065,0.19303 -0.0583,0.0664 -0.21115,0.16691 -0.46253,0.34991 -0.25138,0.18301 -0.60129,0.44846 -0.8949,0.68173 -0.29361,0.23328 -0.53091,0.43438 -0.76419,0.59727 -0.23328,0.1629 -0.46253,0.28758 -0.69179,0.35997 -0.22926,0.0724 -0.45851,0.0925 -0.69581,0.10857 -0.2373,0.0161 -0.48264,0.0282 -0.57314,0.0885 -0.0905,0.0603 -0.0261,0.16894 0.0724,0.30971 0.0985,0.14078 0.23127,0.31372 0.46455,0.56711 0.23328,0.25339 0.5671,0.58721 0.79837,0.86675 0.23127,0.27953 0.35997,0.50476 0.42835,0.63347 0.0684,0.12871 0.0764,0.16083 0.0442,0.17692 -0.0322,0.0161 -0.10457,0.0161 -0.40221,0.0201 -0.29764,0.004 -0.82049,0.012 -1.2408,0.01 -0.4203,-0.002 -0.73803,-0.0141 -1.03767,-0.10659 -0.29965,-0.0925 -0.58119,-0.26545 -0.84664,-0.44041 -0.26546,-0.17496 -0.51482,-0.35193 -0.71391,-0.46656 -0.1991,-0.11462 -0.34791,-0.16691 -0.49271,-0.16891 -0.1448,-0.002 -0.28555,0.0463 -0.41426,0.12267 -0.1287,0.0764 -0.24534,0.18098 -0.33785,0.25539 -0.0925,0.0744 -0.16089,0.11866 -0.35998,0.002 -0.19909,-0.11664 -0.52889,-0.39416 -0.77021,-0.61537 -0.24132,-0.22121 -0.39416,-0.38611 -0.46454,-0.49271 -0.0704,-0.10661 -0.0583,-0.15479 -0.0101,-0.2614 0.0483,-0.10662 0.13272,-0.2715 0.14279,-0.40824 0.0101,-0.13674 -0.0543,-0.24536 -0.1991,-0.46255 -0.1448,-0.21719 -0.37003,-0.54297 -0.61336,-0.88082 -0.24334,-0.33786 -0.50476,-0.68777 -0.68374,-0.96327 -0.17898,-0.27551 -0.27551,-0.47662 -0.25942,-0.59728 0.0161,-0.12066 0.14478,-0.16088 0.31573,-0.20713 0.17094,-0.0463 0.3841,-0.0985 0.6214,-0.11464 0.23731,-0.0161 0.49873,0.004 0.73,0.0482 0.23128,0.0442 0.43237,0.11261 0.59527,0.18903 0.1629,0.0764 0.28756,0.16087 0.37201,0.19306 0.0845,0.0322 0.12874,0.0121 0.14848,-0.0443 0.0197,-0.0563 0.015,-0.14899 0.0127,-0.19532 -0.002,-0.0463 -0.002,-0.0462 0.0242,-0.25732 z"
         id="path145" /><path
         style="opacity:1;fill:#513c27;fill-opacity:1;stroke:#513c27;stroke-width:0.499999;stroke-linecap:round;stroke-dasharray:none;stroke-opacity:1"
         d="m 129.17628,190.14281 c 0.38338,-0.19151 1.15017,-0.57453 1.53355,-0.71954 0.38339,-0.14501 0.38339,-0.0521 0.4978,0.36623 0.11442,0.41832 0.34324,1.16198 0.55061,1.81627 0.20737,0.65429 0.39328,1.21918 0.58635,1.73403 0.19307,0.51486 0.39329,0.97964 0.57921,1.45517 0.18592,0.47552 0.35753,0.96176 0.45764,1.14052 0.10011,0.17877 0.12871,0.0501 0.25027,-0.31821 0.12157,-0.36826 0.33608,-0.97606 0.67574,-1.88778 0.33966,-0.91172 0.80445,-2.12731 1.15841,-2.96752 0.35396,-0.84021 0.59708,-1.30499 0.96177,-1.66253 0.36469,-0.35753 0.85092,-0.6078 1.4051,-0.93316 0.55419,-0.32536 1.17629,-0.7258 1.66969,-0.96534 0.49341,-0.23955 0.85807,-0.3182 1.55885,-0.36826 0.70077,-0.0501 1.7376,-0.0715 2.6815,0.007 0.94389,0.0787 1.79481,0.25741 2.43123,0.39685 0.63641,0.13944 1.05829,0.23955 1.46946,0.27173 0.41116,0.0322 0.81159,-0.004 0.92243,-0.0715 0.11083,-0.0679 -0.0679,-0.16804 -0.74368,-0.50055 -0.67575,-0.33251 -1.84844,-0.8974 -3.02474,-1.44086 -1.1763,-0.54345 -2.35613,-1.06544 -3.39656,-1.33002 -1.04044,-0.26459 -1.9414,-0.27175 -3.18206,-0.15735 -1.24066,0.11441 -2.82092,0.35038 -4.00436,0.66501 -1.18345,0.31463 -1.97001,0.70791 -2.73514,1.44444 -0.76513,0.73653 -1.50878,1.81626 -1.95295,2.57625 -0.44417,0.75999 -0.58884,1.20021 -0.66118,1.42032 -0.0723,0.22011 -0.0723,0.2202 0.31106,0.0287 z"
         id="path146" /><path
         style="opacity:1;fill:none;fill-opacity:1;stroke:#553f26;stroke-width:0.499999;stroke-linecap:round;stroke-dasharray:none;stroke-opacity:1"
         d="m 156.80085,197.05645 c 0.42359,1.32822 0.84719,2.65643 1.20617,3.99183 0.35898,1.33541 0.65333,2.67796 0.94769,4.02053"
         id="path147" /><path
         style="opacity:1;fill:none;fill-opacity:1;stroke:#553f26;stroke-width:1.4;stroke-linecap:round;stroke-dasharray:none;stroke-opacity:1"
         d="m 155.63087,235.10953 c -0.87122,1.66323 -1.74243,3.32646 -2.75226,4.6828 -1.00983,1.35634 -2.15823,2.40573 -3.45517,3.30666 -1.29694,0.90092 -2.74234,1.65333 -4.18776,2.40574"
         id="path148" /><path
         style="opacity:1;fill:none;fill-opacity:1;stroke:#513c27;stroke-width:1.4;stroke-linecap:round;stroke-dasharray:none;stroke-opacity:1"
         d="m 136.56312,228.15961 c 0.1584,1.10881 0.31681,2.21764 0.2871,3.44527 -0.0297,1.22764 -0.2475,2.57404 -0.46531,3.92046"
         id="path149" /><path
         style="opacity:1;fill:none;fill-opacity:1;stroke:#000000;stroke-width:0.5;stroke-linecap:round;stroke-dasharray:none;stroke-opacity:1"
         d="m 123.81302,242.76021 c 0.0147,-0.32439 0.0295,-0.64877 0.13268,-0.95842 0.10321,-0.30965 0.29489,-0.60454 0.48657,-0.89944"
         id="path150"
         transform="translate(0.51845354,-0.48789838)" /><path
         style="opacity:1;fill:none;fill-opacity:1;stroke:#000000;stroke-width:0.499999;stroke-linecap:round;stroke-dasharray:none;stroke-opacity:1"
         d="m 129.69623,263.68324 c 0,-0.2949 0,-0.5898 0.0664,-0.82572 0.0663,-0.23592 0.19905,-0.41285 0.33176,-0.58979"
         id="path151" /><path
         style="opacity:1;fill:none;fill-opacity:1;stroke:#000000;stroke-width:0.499999;stroke-linecap:round;stroke-dasharray:none;stroke-opacity:1"
         d="m 133.36772,263.86018 c 0.16219,-0.51607 0.32439,-1.03214 0.48658,-1.54822"
         id="path152" /><path
         style="opacity:1;fill:none;fill-opacity:1;stroke:#000000;stroke-width:0.499999;stroke-linecap:round;stroke-dasharray:none;stroke-opacity:1"
         d="m 154.91003,264.5237 c -0.0147,-0.23592 -0.0295,-0.47184 -0.16954,-0.70039 -0.14008,-0.22854 -0.40548,-0.44971 -0.67089,-0.67089"
         id="path153" /><path
         style="opacity:1;fill:none;fill-opacity:1;stroke:#000000;stroke-width:0.499999;stroke-linecap:round;stroke-dasharray:none;stroke-opacity:1"
         d="m 158.58152,262.44467 c -0.4571,-0.61929 -0.91419,-1.23857 -1.37128,-1.85786"
         id="path154" /><path
         style="opacity:1;fill:none;fill-opacity:1;stroke:#000000;stroke-width:0.499999;stroke-linecap:round;stroke-dasharray:none;stroke-opacity:1"
         d="m 171.71923,237.49628 c -0.41286,-0.2949 -0.82571,-0.5898 -1.19434,-0.73725 -0.36863,-0.14745 -0.69301,-0.14745 -1.01739,-0.14745"
         id="path155" /><path
         style="opacity:1;fill:none;fill-opacity:1;stroke:#000000;stroke-width:0.499999;stroke-linecap:round;stroke-dasharray:none;stroke-opacity:1"
         d="m 169.24209,239.92919 c -0.11796,-0.2949 -0.23592,-0.5898 -0.36863,-0.76674 -0.13271,-0.17693 -0.28015,-0.23591 -0.4276,-0.29489"
         id="path156" /><path
         style="opacity:1;fill:#b38f6d;fill-opacity:1;stroke:#000000;stroke-width:1;stroke-linecap:round;stroke-dasharray:none;stroke-opacity:1"
         d="m 123.0385,213.11674 c -0.12499,-0.60707 -0.37496,-1.82121 -0.46423,-2.82109 -0.0893,-0.99989 -0.0179,-1.78549 0.66659,-2.24972 0.68445,-0.46423 1.98189,-0.60707 3.45196,-1.24391 1.47008,-0.63683 3.1127,-1.76762 4.83274,-2.53539 1.72005,-0.76777 3.51741,-1.17248 5.13032,-1.39864 1.61292,-0.22616 3.04128,-0.27378 4.45184,-0.33329 1.41056,-0.0595 2.80321,-0.13094 4.05307,0.13689 1.24986,0.26783 2.35684,0.87489 3.68408,1.15462 1.32723,0.27973 2.87463,0.23211 4.04116,0.20236 1.16653,-0.0298 1.95214,-0.0417 2.3747,0.20236 0.42257,0.24403 0.48208,0.74396 0.5416,1.66053 0.0595,0.91656 0.11903,2.24971 0.0774,3.1008 -0.0417,0.85109 -0.1845,1.22008 -0.1964,1.87477 -0.0119,0.65469 0.10713,1.59504 0.39281,2.3152 0.28569,0.72015 0.738,1.22007 1.19628,1.51765 0.45828,0.29759 0.92251,0.39281 1.00583,0.66064 0.0833,0.26783 -0.21426,0.70825 -0.64874,1.48197 -0.43447,0.77373 -1.00582,1.88071 -1.61289,2.77347 -0.60708,0.89275 -1.24984,1.57123 -2.01166,2.29138 -0.76182,0.72016 -1.64265,1.48196 -2.64254,2.00571 -0.99989,0.52374 -2.11878,0.80942 -3.41625,1.12486 -1.29748,0.31544 -2.77346,0.66063 -4.42803,1.06535 -1.65458,0.40471 -3.48765,0.86893 -4.79702,1.12485 -1.30938,0.25592 -2.09498,0.30354 -2.96393,0.22616 -0.86895,-0.0774 -1.82119,-0.27972 -2.78537,-0.58921 -0.96418,-0.30949 -1.94023,-0.7261 -2.71991,-0.95226 -0.77967,-0.22616 -1.36292,-0.26187 -1.99975,-0.43447 -0.63683,-0.1726 -1.32721,-0.48208 -1.87477,-0.74991 -0.54755,-0.26783 -0.95226,-0.49399 -1.40459,-0.99989 -0.45233,-0.50589 -0.95226,-1.2915 -1.23793,-2.05927 -0.28568,-0.76777 -0.3571,-1.51766 -0.38686,-2.25567 -0.0298,-0.73801 -0.0179,-1.4641 -0.15475,-1.94619 -0.1369,-0.48208 -0.42257,-0.72014 -0.41066,-1.00583 0.0119,-0.28568 0.32138,-0.61897 0.42851,-0.9344 0.10713,-0.31544 0.0119,-0.61302 -0.0298,-0.91061 -0.0417,-0.29758 -0.0298,-0.59516 -0.0238,-0.74395 0.006,-0.14879 0.006,-0.1488 -0.11901,-0.75587 z"
         id="path157" /><path
         style="opacity:1;fill:#fff6e8;fill-opacity:1;stroke:#553f26;stroke-width:0.499999;stroke-linecap:round;stroke-dasharray:none;stroke-opacity:1"
         d="m 125.40894,223.37989 c -0.0536,-0.18143 -0.16082,-0.5443 -0.21031,-0.92779 -0.0495,-0.38349 -0.0412,-0.78759 -0.11548,-1.15871 -0.0742,-0.37112 -0.23093,-0.70925 -0.21855,-1.07624 0.0124,-0.367 0.1938,-0.76285 0.5608,-1.19582 0.367,-0.43298 0.91954,-0.90305 1.52983,-1.24531 0.61029,-0.34226 1.27829,-0.55668 1.81848,-0.66389 0.54019,-0.10721 0.95253,-0.10721 1.20406,-0.10721 0.25152,0 0.34226,0 0.53607,-0.27216 0.19381,-0.27216 0.49069,-0.81645 1.03088,-1.39375 0.54019,-0.5773 1.32365,-1.18757 2.04939,-1.60818 0.72575,-0.4206 1.39375,-0.65151 2.08651,-0.76285 0.69277,-0.11135 1.41024,-0.10311 1.98754,-0.0619 0.5773,0.0412 1.01439,0.11545 1.41438,0.25977 0.39998,0.14433 0.76284,0.35875 1.13397,0.58967 0.37112,0.23092 0.75047,0.47833 1.38138,0.72986 0.63091,0.25154 1.51333,0.50719 2.16073,0.54843 0.6474,0.0412 1.05974,-0.13195 1.45148,-0.21443 0.39173,-0.0825 0.76285,-0.0742 1.22882,0.0206 0.46596,0.0948 1.02675,0.27627 1.51333,0.55667 0.48658,0.2804 0.89892,0.65976 1.2453,1.07624 0.34638,0.41648 0.62678,0.87006 0.77935,1.36489 0.15256,0.49483 0.1773,1.03088 0.22265,1.40613 0.0454,0.37525 0.11133,0.58966 0.14844,0.84119 0.0371,0.25153 0.0453,0.54018 0.0165,0.76698 -0.0289,0.2268 -0.0948,0.39173 -0.21031,0.5608 -0.11546,0.16907 -0.28039,0.34225 -0.37937,0.42884 -0.099,0.0866 -0.13197,0.0866 -0.14847,0.23917 -0.0165,0.15258 -0.0165,0.45771 -0.0619,0.71337 -0.0454,0.25566 -0.13608,0.46184 -0.25978,0.69276 -0.12371,0.23092 -0.2804,0.48657 -1.81835,1.07883 -1.53794,0.59226 -4.45703,1.52108 -6.62876,2.05442 -2.17174,0.53334 -3.59602,0.67117 -5.03183,0.51035 -1.4358,-0.16081 -2.88305,-0.62026 -4.1121,-1.04525 -1.22905,-0.425 -2.23982,-0.81553 -3.13577,-1.11417 -0.89594,-0.29865 -1.67699,-0.5054 -2.17709,-0.72508 -0.5001,-0.21968 -0.71923,-0.45228 -0.82879,-0.56858 -0.10956,-0.1163 -0.10943,-0.11622 -0.16303,-0.29766 z"
         id="path164" /><path
         style="opacity:1;fill:#010101;fill-opacity:1;stroke:none;stroke-width:0.499999;stroke-linecap:round;stroke-dasharray:none;stroke-opacity:1"
         id="path165"
         d="m 132.42409,221.33082 a 3.3007452,1.8591954 0 0 1 -4.40066,0.86074 3.3007452,1.8591954 0 0 1 -1.54606,-2.47521 3.3007452,1.8591954 0 0 1 4.38806,-0.88093 3.3007452,1.8591954 0 0 1 1.58183,2.46803" /><path
         style="opacity:1;fill:#505050;fill-opacity:1;stroke:none;stroke-width:0.499999;stroke-linecap:round;stroke-dasharray:none;stroke-opacity:1"
         id="path166"
         d="m 130.8981,220.32472 a 0.61649579,0.5541535 0 0 1 -0.82193,0.25655 0.61649579,0.5541535 0 0 1 -0.28877,-0.73776 0.61649579,0.5541535 0 0 1 0.81958,-0.26257 0.61649579,0.5541535 0 0 1 0.29545,0.73562" /><path
         style="opacity:1;fill:none;fill-opacity:1;stroke:#7b5155;stroke-width:0.499999;stroke-linecap:round;stroke-dasharray:none;stroke-opacity:1"
         d="m 132.98386,223.61082 c 0.27215,0.11545 0.54431,0.23091 0.89069,0.27628 0.34638,0.0454 0.76697,0.0206 1.07624,-0.0742 0.30926,-0.0948 0.50719,-0.25977 0.65976,-0.49069 0.15257,-0.23092 0.25978,-0.52781 0.30927,-0.70509 0.0495,-0.17729 0.0413,-0.23508 0.033,-0.17323 -0.008,0.0618 -0.0165,0.24329 0.0949,0.45772 0.11134,0.21443 0.34225,0.46183 0.6309,0.61028 0.28865,0.14845 0.63503,0.19793 0.96079,0.19793 0.32576,0 0.6309,-0.0495 0.94841,-0.14432 0.31751,-0.0948 0.64739,-0.23504 0.97727,-0.37524"
         id="path162" /><path
         style="opacity:1;fill:#7b5155;fill-opacity:1;stroke:#7b5155;stroke-width:0.499999;stroke-linecap:round;stroke-dasharray:none;stroke-opacity:1"
         id="path163"
         d="m 137.51132,221.94957 a 1.4721004,0.75460613 0 0 1 -1.96265,0.34935 1.4721004,0.75460613 0 0 1 -0.68953,-1.00463 1.4721004,0.75460613 0 0 1 1.95703,-0.35755 1.4721004,0.75460613 0 0 1 0.70548,1.00172" /><path
         style="opacity:1;fill:#010101;fill-opacity:1;stroke:none;stroke-width:0.499999;stroke-linecap:round;stroke-dasharray:none;stroke-opacity:1"
         id="path169"
         d="m 147.01262,220.43835 a 3.3007452,1.8591954 0 0 1 -4.40066,0.86074 3.3007452,1.8591954 0 0 1 -1.54606,-2.47521 3.3007452,1.8591954 0 0 1 4.38806,-0.88093 3.3007452,1.8591954 0 0 1 1.58183,2.46803" /><path
         style="opacity:1;fill:#505050;fill-opacity:1;stroke:none;stroke-width:0.499999;stroke-linecap:round;stroke-dasharray:none;stroke-opacity:1"
         id="path170"
         d="m 145.48663,219.43225 a 0.61649579,0.5541535 0 0 1 -0.82193,0.25655 0.61649579,0.5541535 0 0 1 -0.28877,-0.73776 0.61649579,0.5541535 0 0 1 0.81958,-0.26257 0.61649579,0.5541535 0 0 1 0.29545,0.73562" /><path
         style="opacity:1;fill:#73614b;fill-opacity:1;stroke:#000000;stroke-width:1.7;stroke-linecap:round;stroke-dasharray:none;stroke-opacity:1"
         d="m 130.90061,182.69223 c -0.73646,-1.76406 -2.20937,-5.2922 -2.97708,-7.18714 -0.76771,-1.89494 -0.83021,-2.15667 -0.8511,-2.30828 -0.0209,-0.15161 -1.3e-4,-0.19314 0.84239,-0.71159 0.84252,-0.51846 2.50678,-1.51391 3.37263,-2.02979 0.86584,-0.51588 0.93325,-0.55218 1.19768,-0.51329 0.26442,0.0389 0.72585,0.15295 1.75244,0.55996 1.02659,0.40701 2.61827,1.10694 3.48151,1.50097 0.86325,0.39403 0.99807,0.48218 1.11732,0.6455 0.11925,0.16332 0.22294,0.40181 0.40441,1.30397 0.18147,0.90216 0.4407,2.46791 0.744,4.21518 0.30331,1.74727 0.65068,3.67595 0.83992,4.70253 0.18924,1.02657 0.22034,1.151 0.15812,1.26247 -0.0622,0.11147 -0.21777,0.20998 -1.20548,0.66365 -0.9877,0.45367 -2.8075,1.26247 -3.77444,1.69539 -0.96695,0.43293 -1.08102,0.48996 -1.18211,0.50294 -0.10108,0.013 -0.18926,-0.0181 -0.60664,-0.27737 -0.41737,-0.25924 -1.16396,-0.7466 -1.64836,-1.16145 -0.48441,-0.41486 -0.70661,-0.75721 -0.81771,-0.92838 -0.1111,-0.17117 -0.11105,-0.1712 -0.8475,-1.93527 z"
         id="path139" /></g></g></svg>
