<?xml version="1.0" encoding="UTF-8" standalone="no"?>
<!-- Created with Inkscape (http://www.inkscape.org/) -->

<svg
   width="198.48824mm"
   height="161.11174mm"
   viewBox="0 0 198.48824 161.11174"
   version="1.1"
   id="svg1"
   xml:space="preserve"
   xmlns="http://www.w3.org/2000/svg"
   xmlns:svg="http://www.w3.org/2000/svg"><defs
     id="defs1" /><g
     id="layer1"
     transform="translate(2.5559531,-64.559416)"><g
       id="g21"
       transform="translate(10.547023,-2.2204259)"><path
         style="opacity:1;fill:#b4b4b4;fill-opacity:1;stroke:#000000;stroke-width:0.476001;stroke-linecap:round;stroke-opacity:1"
         d="m 13.814164,160.10388 c -2.44932,1.19201 -7.3479578,3.57601 -11.5608226,6.67852 -4.2128648,3.10251 -7.7398184,6.92338 -10.1238343,10.07486 -2.3840161,3.15148 -3.6249811,5.63341 -4.3107921,7.52757 -0.685812,1.89415 -0.81644,3.20043 -0.538844,3.85358 0.277597,0.65315 0.963393,0.65315 2.8412365,1.07771 1.8778434,0.42455 4.9475964,1.27363 7.4132629,1.97578 2.465666532853,0.70214 4.3271128,1.25731 6.4988685,1.48591 2.1717558,0.2286 4.6536827,0.13063 6.9887231,-0.27759 2.33504,-0.40823 4.523055,-1.12668 7.037718,-2.30237 2.514664,-1.17569 5.35582,-2.80854 8.474655,-5.04561 3.118836,-2.23708 6.515158,-5.07823 9.078796,-7.46225 2.563639,-2.38403 4.294458,-4.31079 5.176213,-5.87836 0.881755,-1.56758 0.914411,-2.77589 0.342891,-3.49436 -0.57152,-0.71847 -1.74717,-0.94707 -4.131211,-1.55124 -2.384041,-0.60418 -5.976305,-1.58389 -9.193107,-2.77591 -3.216801,-1.19201 -6.057956,-2.59626 -7.919448,-3.47802 -1.861493,-0.88176 -2.743229,-1.24099 -3.184107,-1.4206 -0.440879,-0.17962 -0.440877,-0.17962 -2.890198,1.01238 z"
         id="path4" /><g
         id="g20"><path
           style="opacity:1;fill:#f8eae3;fill-opacity:1;stroke:#000000;stroke-width:0.476001;stroke-linecap:round;stroke-opacity:1"
           d="m 63.667287,161.84585 c 7.172645,0.45985 21.107363,1.25788 28.105417,1.5955 6.998054,0.33762 7.059438,0.21485 6.721805,2.24065 -0.337634,2.02579 -1.074256,6.19998 -1.442576,10.71194 -0.368319,4.51195 -0.368319,9.36137 0.337639,13.59707 0.705958,4.2357 2.117819,7.85743 3.683188,11.08024 1.56537,3.22282 3.28416,6.04654 4.81884,7.98022 1.53467,1.93369 2.88514,2.97723 4.69606,3.43763 1.81093,0.4604 4.08218,0.33763 5.64754,-1.13567 1.56537,-1.47331 2.42476,-4.29703 3.1921,-8.10303 0.76733,-3.80601 1.44257,-8.59405 1.59603,-13.87334 0.15346,-5.27929 -0.21485,-11.0495 -0.27623,-14.45646 -0.0614,-3.40696 0.18415,-4.45051 0.67525,-4.9416 0.4911,-0.49108 1.22772,-0.4297 5.55554,0.95152 4.32783,1.38122 12.24652,4.08217 16.23664,7.2743 3.99011,3.19213 4.0515,6.87524 4.78815,11.3872 0.73665,4.51195 2.14851,9.85247 3.77527,14.05747 1.62676,4.205 3.46831,7.27426 5.61686,10.03667 2.14855,2.76241 4.60396,5.21782 7.67332,7.39706 3.06936,2.17924 6.75247,4.08218 9.42279,5.18714 2.67033,1.10496 4.32773,1.41188 5.77032,1.38118 1.44259,-0.0307 2.6703,-0.399 3.28416,-1.10496 0.61387,-0.70595 0.61387,-1.7495 -0.0307,-4.1743 -0.64457,-2.4248 -1.93367,-6.23069 -3.59112,-11.57137 -1.65745,-5.34069 -3.68316,-12.21583 -5.43269,-18.81494 -1.74953,-6.5991 -3.22277,-12.92177 -4.14357,-16.97329 -0.9208,-4.05153 -1.28911,-5.8317 -0.46038,-7.02874 0.82874,-1.19704 2.85445,-1.81089 4.90521,-2.29941 2.05076,-0.48851 4.12644,-0.85166 5.34914,-1.10718 1.22271,-0.25551 1.59238,-0.40338 1.18573,-0.82852 -0.40666,-0.42513 -1.58961,-1.12751 -3.29015,-2.38443 -1.70054,-1.25693 -3.91857,-3.06831 -4.86124,-4.02948 -0.94267,-0.96116 -0.60997,-1.07206 0.88725,-1.34932 1.49722,-0.27726 4.15885,-0.72087 5.84089,-0.97964 1.68204,-0.25878 2.38442,-0.33271 2.56925,-0.60998 0.18484,-0.27726 -0.14786,-0.75783 -2.64324,-2.05172 -2.49537,-1.2939 -7.15322,-3.40102 -9.27886,-4.47308 -2.12565,-1.07207 -1.71901,-1.10904 0.66545,-1.36782 2.38447,-0.25878 6.74659,-0.73935 9.07556,-0.97964 2.32897,-0.24029 2.62471,-0.24029 2.25502,-0.60998 -0.36969,-0.36968 -1.40476,-1.10902 -2.73562,-1.88536 -1.33086,-0.77633 -2.95741,-1.58961 -4.08493,-2.79107 -1.12752,-1.20147 -1.75597,-2.79106 -1.62657,-3.73374 0.1294,-0.94268 1.0166,-1.23841 3.19774,-3.29017 2.18113,-2.05175 5.65604,-5.85935 7.09777,-7.76319 1.44174,-1.90384 0.85027,-1.90384 -2.14417,-1.09053 -2.99445,0.8133 -8.39164,2.43985 -12.29176,2.56922 -3.90013,0.12938 -6.30299,-1.2384 -8.92773,-2.69864 -2.62474,-1.46025 -5.47121,-3.01286 -8.33624,-4.38068 -2.86503,-1.36782 -5.74846,-2.55077 -7.0793,-3.60436 -1.33084,-1.05359 -1.10904,-1.97777 -0.79481,-4.67646 0.31423,-2.6987 0.72087,-7.17171 0.85026,-9.63007 0.12938,-2.45837 -0.0185,-2.901973 -0.86876,-2.125632 -0.85027,0.776342 -2.40289,2.772562 -4.02949,4.861272 -1.6266,2.0887 -3.32709,4.26976 -4.56551,5.56364 -1.23843,1.29387 -2.01474,1.70051 -4.71344,1.84838 -2.69869,0.14786 -7.31957,0.037 -10.83153,-0.18485 -3.51197,-0.22181 -5.91483,-0.55451 -7.33809,-0.75783 -1.42326,-0.20332 -1.86687,-0.27726 -1.70051,0.0185 0.16636,0.29575 0.94267,0.96116 1.94081,2.21808 0.99814,1.25692 2.21806,3.10528 1.53413,4.19583 -0.68393,1.09055 -3.27163,1.42325 -5.43426,1.97778 -2.16263,0.55452 -3.90008,1.33083 -4.34369,1.77445 -0.4436,0.44362 0.40664,0.55452 1.81143,0.86875 1.4048,0.31423 3.36405,0.83177 3.03131,1.53416 -0.33273,0.7024 -2.95739,1.58961 -5.36032,2.03322 -2.40293,0.44361 -4.58398,0.44361 -6.949945,-0.24031 -2.365964,-0.68391 -4.916692,-2.05169 -11.25677,-2.56924 -6.340079,-0.51754 -16.469051,-0.18484 -21.626061,0.1109 -5.157009,0.29575 -5.341845,0.55452 -5.840918,2.9205 -0.499073,2.36599 -1.312347,6.839 -2.033226,11.09034 -0.720878,4.25133 -1.349319,8.28074 -1.571124,12.25482 -0.221804,3.97408 -0.03697,7.89258 0.260741,9.91272 0.29771,2.02014 0.708275,2.14183 7.88092,2.60169 z"
           id="path9" /><path
           style="opacity:1;fill:#b4b4b4;fill-opacity:1;stroke:#000000;stroke-width:0.476001;stroke-linecap:round;stroke-opacity:1"
           d="m 15.694505,155.8709 c -0.656424,-2.32732 -1.014475,-5.78847 -0.895119,-10.29398 0.119356,-4.50551 0.716094,-10.05517 2.20799,-17.69366 1.491897,-7.63848 3.878847,-17.3653 5.340889,-22.85541 1.462041,-5.490103 1.999104,-6.743251 5.549827,-9.398826 3.550723,-2.655575 10.114833,-6.713389 17.037197,-10.472943 6.922363,-3.759555 14.202559,-7.220631 21.99022,-9.428613 7.787661,-2.207982 16.082309,-3.162762 21.274048,-3.640161 5.191739,-0.4774 7.28032,-0.4774 6.802889,0.924989 -0.47743,1.402389 -3.52079,4.207054 -7.519059,8.115812 -3.998269,3.908757 -8.951188,8.92135 -13.337334,14.530856 -4.386146,5.609506 -8.205264,11.815576 -10.622109,17.305716 -2.416844,5.49014 -3.431295,10.26403 -4.505455,15.39613 -1.07416,5.1321 -2.207962,10.62209 -2.804712,15.66467 -0.596749,5.04257 -0.656423,9.63745 -0.387879,13.45667 0.268543,3.81923 0.86528,6.86259 0.477378,8.623 -0.387902,1.76042 -1.760396,2.23781 -4.236941,2.47651 -2.476545,0.2387 -6.056969,0.2387 -10.085072,-0.35806 -4.028103,-0.59676 -8.503632,-1.79024 -12.531725,-3.16278 -4.028094,-1.37254 -7.608515,-2.92405 -9.876174,-4.29659 -2.267659,-1.37254 -3.222435,-2.56601 -3.878859,-4.89333 z"
           id="path1" /><path
           style="opacity:1;fill:#b4b4b4;fill-opacity:1;stroke:#000000;stroke-width:0.476001;stroke-linecap:round;stroke-opacity:1"
           d="m 56.318032,163.09206 c -0.01633,0.65315 -0.04899,1.95945 -0.06531,2.80855 -0.01633,0.84911 -0.01633,1.24099 0.979748,1.43693 0.996077,0.19595 2.988152,0.19595 5.992691,0.22861 3.00454,0.0327 7.021343,0.098 11.397509,0.16329 4.376166,0.0653 9.111425,0.13063 12.769102,0.17962 3.657676,0.049 6.237575,0.0816 7.854134,1e-5 1.61656,-0.0816 2.269696,-0.27758 2.596271,-0.86543 0.326576,-0.58785 0.326576,-1.56756 0.326576,-2.33502 0,-0.76746 0,-1.32263 -1.894178,-1.60021 -1.894179,-0.27759 -5.682385,-0.27759 -9.356401,-0.13063 -3.674016,0.14696 -7.233622,0.44087 -11.021945,0.52252 -3.788323,0.0816 -7.805126,-0.049 -11.103569,-0.26127 -3.298443,-0.21227 -5.878343,-0.50618 -7.168318,-0.65314 -1.289976,-0.14696 -1.289978,-0.14698 -1.306306,0.50617 z"
           id="path3" /><path
           style="opacity:1;fill:#b4b4b4;fill-opacity:1;stroke:#000000;stroke-width:0.476001;stroke-linecap:round;stroke-opacity:1"
           d="m 35.449824,88.910317 c 0.473536,-1.812496 1.420607,-5.437491 3.363763,-9.307458 1.943157,-3.869966 4.882283,-7.984742 7.429598,-10.123816 2.547315,-2.139074 4.702671,-2.302359 7.31531,-2.400331 2.612639,-0.09797 5.682393,-0.130629 8.52363,0.326587 2.841237,0.457217 5.453794,1.404269 7.08668,2.579957 1.632886,1.175688 2.286024,2.579935 1.485891,3.592327 -0.800133,1.012392 -3.053462,1.632874 -6.645848,2.971856 -3.592385,1.338982 -8.523586,3.396371 -12.475184,5.25787 -3.951598,1.8615 -6.923382,3.527006 -9.519683,4.980281 -2.596301,1.453275 -4.816975,2.694239 -5.927333,3.314733 -1.110359,0.620494 -1.110359,0.620491 -0.636824,-1.192006 z"
           id="path5" /><path
           style="opacity:1;fill:#b4b4b4;fill-opacity:1;stroke:#000000;stroke-width:0.476001;stroke-linecap:round;stroke-opacity:1"
           d="M 94.780637,73.725092 C 92.32518,75.81223 89.0717,79.43403 85.265698,83.57766 c -3.806002,4.143631 -8.164352,8.808906 -12.062424,13.965423 -3.898072,5.156517 -7.335644,10.803957 -9.300013,14.640627 -1.96437,3.83667 -2.455452,5.86238 -1.933651,6.87526 0.5218,1.01287 2.056428,1.01287 5.309959,0.55246 3.25353,-0.46041 8.225731,-1.38118 12.921837,-1.84158 4.696106,-0.4604 9.115838,-0.4604 12.921829,-0.30693 3.80599,0.15347 6.998025,0.4604 9.729745,0.76733 2.73171,0.30694 5.00296,0.61387 7.05942,0.76733 2.05647,0.15347 3.89803,0.15347 5.83172,0.0921 1.93369,-0.0614 3.9594,-0.18416 4.94159,-1.62677 0.98218,-1.44261 0.9208,-4.20494 0.70594,-6.50695 -0.21486,-2.30201 -0.58317,-4.14357 -1.47329,-7.58126 -0.89011,-3.437684 -2.30197,-8.471268 -4.41983,-13.597087 -2.11786,-5.12582 -4.94158,-10.343561 -7.55053,-13.566362 -2.60895,-3.2228 -5.00297,-4.450503 -7.02874,-4.788123 -2.025767,-0.33762 -3.683166,0.214846 -6.138623,2.301984 z"
           id="path6" /><path
           style="opacity:1;fill:#ffffff;fill-opacity:1;stroke:#000000;stroke-width:0.476001;stroke-linecap:round;stroke-opacity:1"
           d="m 59.299284,125.96494 3.130708,-3.86735 2.394069,8.83965 3.867346,-5.15646 3.130706,3.13071 7.550531,-4.23567 3.314867,3.13071 4.235664,-4.78814 6.077254,4.23566 8.839651,-3.1307 8.28716,-5.52478 -10.497075,-3.31487 -38.305128,2.94655 z"
           id="path7" /><path
           style="opacity:1;fill:#ffffff;fill-opacity:1;stroke:#000000;stroke-width:0.476001;stroke-linecap:round;stroke-opacity:1"
           d="m 56.536896,162.79679 5.893096,-7.18221 1.104956,7.55053 6.813891,-7.18221 1.473274,6.99805 8.839647,-5.70894 2.209911,6.44558 6.998052,-5.34062 4.051504,5.34062 5.524778,-4.41982 -1.473274,5.34061 -41.251677,0.18417 z"
           id="path8" /><path
           style="opacity:1;fill:#ffcda8;fill-opacity:1;stroke:#000000;stroke-width:0.476001;stroke-linecap:round;stroke-opacity:1"
           d="m 115.04421,118.60236 c 0.4211,0.56856 1.51232,1.47792 3.17192,1.72798 1.65959,0.25007 3.88746,-0.15913 8.66165,0.88665 4.77418,1.04579 12.09434,3.54646 18.49398,6.85428 6.39964,3.30782 11.87839,7.42257 15.6636,10.53713 3.78521,3.11456 5.87668,5.22877 7.03611,6.37683 1.15943,1.14806 1.38677,1.32993 2.76219,1.31856 1.37542,-0.0114 3.89883,-0.21597 5.95626,-0.43194 2.05743,-0.21597 3.64877,-0.44331 4.54676,-0.56835 0.89799,-0.12503 1.10259,-0.14777 1.03439,-0.32964 -0.0682,-0.18188 -0.40921,-0.52288 -1.62549,-1.32994 -1.21628,-0.80706 -3.30776,-2.08014 -4.56949,-3.18274 -1.26173,-1.1026 -1.69367,-2.03467 -1.93237,-2.61439 -0.23871,-0.57972 -0.28418,-0.80704 -0.12504,-1.2731 0.15914,-0.46605 0.52287,-1.17078 1.67096,-2.31886 1.14808,-1.14808 3.08041,-2.73942 4.78547,-4.55815 1.70506,-1.81873 3.18273,-3.86473 3.81927,-4.94459 0.63655,-1.07986 0.43195,-1.19353 -1.04578,-0.82978 -1.47773,0.36375 -4.22847,1.20489 -6.99067,1.73914 -2.76219,0.53424 -5.53566,0.76158 -7.38848,0.79568 -1.85282,0.0341 -2.78489,-0.12503 -4.39902,-0.72749 -1.61413,-0.60246 -3.9102,-1.6482 -7.33169,-3.43284 -3.4215,-1.78463 -7.96818,-4.30804 -10.30977,-5.81984 -2.34159,-1.51181 -2.47799,-2.01195 -2.43252,-2.94405 0.0455,-0.9321 0.27281,-2.2961 0.47797,-4.65685 0.20517,-2.36074 0.38815,-5.71807 0.39533,-7.49312 0.007,-1.775055 -0.16144,-1.967764 -0.76367,-1.37757 -0.60224,0.5902 -1.63804,1.96324 -3.21589,3.89038 -1.57785,1.92714 -3.69764,4.40826 -5.13094,5.86564 -1.4333,1.45739 -2.18004,1.89099 -3.48087,2.10779 -1.30082,0.2168 -3.15563,0.2168 -6.15475,0.1084 -2.99912,-0.10841 -7.14234,-0.32521 -9.87645,-0.55406 -2.73411,-0.22884 -4.05898,-0.46973 -4.64916,-0.46973 -0.59017,1e-5 -0.44564,0.24089 0.0361,0.7829 0.48178,0.54202 1.30079,1.38511 1.93915,2.22824 0.63836,0.84312 1.09604,1.68621 1.24058,2.28844 0.14453,0.60223 -0.0241,0.96356 -0.23292,1.25811 -0.20883,0.29456 -0.45786,0.52232 -0.0368,1.09088 z"
           id="path10" /><path
           style="opacity:1;fill:#ffffff;fill-opacity:1;stroke:#000000;stroke-width:0.476001;stroke-linecap:round;stroke-opacity:1"
           id="path11"
           d="m 149.40933,130.74502 a 12.920249,10.011502 0 0 1 -17.22571,4.63495 12.920249,10.011502 0 0 1 -6.05178,-13.32865 12.920249,10.011502 0 0 1 17.17636,-4.74365 12.920249,10.011502 0 0 1 6.19184,13.28998" /><path
           style="opacity:1;fill:#ffffff;fill-opacity:1;stroke:#000000;stroke-width:0.476001;stroke-linecap:round;stroke-opacity:1"
           id="path12"
           d="m 176.51359,141.15283 a 7.1027551,6.8998194 0 0 1 -9.46963,3.19436 7.1027551,6.8998194 0 0 1 -3.3269,-9.18597 7.1027551,6.8998194 0 0 1 9.4425,-3.26927 7.1027551,6.8998194 0 0 1 3.4039,9.15931" /><path
           style="opacity:1;fill:#000000;fill-opacity:1;stroke:#000000;stroke-width:0.476001;stroke-linecap:round;stroke-opacity:1"
           id="path13"
           d="m 144.81167,128.03688 a 3.517555,3.517555 0 0 1 -4.68972,1.6285 3.517555,3.517555 0 0 1 -1.64761,-4.68304 3.517555,3.517555 0 0 1 4.67629,-1.66669 3.517555,3.517555 0 0 1 1.68573,4.66945" /><path
           style="opacity:1;fill:#000000;fill-opacity:1;stroke:#000000;stroke-width:0.476001;stroke-linecap:round;stroke-opacity:1"
           id="path14"
           d="m 173.62985,138.88935 a 2.1646492,2.5028756 0 0 1 -2.88599,1.15874 2.1646492,2.5028756 0 0 1 -1.01391,-3.33217 2.1646492,2.5028756 0 0 1 2.87772,-1.18591 2.1646492,2.5028756 0 0 1 1.03737,3.3225" /><path
           style="opacity:1;fill:#da9a9c;fill-opacity:1;stroke:#000000;stroke-width:0.476001;stroke-linecap:round;stroke-opacity:1"
           d="m 152.42738,132.0436 c 0.76665,-0.99213 2.8411,-0.90193 4.48715,-0.38331 1.64605,0.51862 2.86364,1.46564 3.56264,2.18719 0.699,0.72155 0.87939,1.21761 0.20292,1.87153 -0.67647,0.65391 -2.20973,1.46564 -3.67539,1.73621 -1.46566,0.27058 -2.86364,0 -3.83323,-1.17254 -0.96959,-1.17254 -1.51074,-3.24695 -0.74409,-4.23908 z"
           id="path15" /><path
           style="opacity:1;fill:#b97677;fill-opacity:1;stroke:#000000;stroke-width:0.476001;stroke-linecap:round;stroke-opacity:1"
           d="m 151.48034,138.15423 c -3.20187,-1.37546 -6.17826,-2.1872 -9.01939,-2.48033 -2.84113,-0.29313 -5.54689,-0.0677 -8.23018,0.20294 -2.68329,0.27058 -5.34395,0.58625 -6.94489,1.84899 -1.60094,1.26273 -2.1421,3.47243 -1.39798,5.07338 0.74412,1.60095 2.77344,2.59306 5.36654,3.26952 2.5931,0.67645 5.74981,1.03722 8.07231,1.73623 2.32251,0.69902 3.81068,1.73623 5.0283,2.9313 1.21763,1.19508 2.16464,2.54796 3.67541,3.92343 1.51076,1.37547 3.58518,2.77345 5.79494,3.24696 2.20977,0.47351 4.55477,0.0225 5.93023,-1.39803 1.37545,-1.42057 1.78132,-3.81066 1.91661,-6.15572 0.13529,-2.34506 0,-4.64495 -1.78136,-6.76452 -1.78136,-2.11957 -5.20866,-4.0587 -8.41054,-5.43415 z"
           id="path16" /><path
           style="opacity:1;fill:#000000;fill-opacity:1;stroke:#000000;stroke-width:0.476001;stroke-linecap:round;stroke-opacity:1"
           d="m 60.108387,87.220567 c 0.963764,-0.02536 0.862314,2.713754 1.268119,5.224634 0.405804,2.51088 1.318825,4.79343 2.434774,6.467344 1.11595,1.673915 2.434756,2.739105 3.195625,3.347795 0.760869,0.6087 0.963762,0.76087 0.557955,1.72465 -0.405806,0.96378 -1.420274,2.7391 -3.271739,3.65214 -1.851465,0.91304 -4.539804,0.96376 -6.82242,0.98913 -2.282616,0.0254 -4.15938,0.0254 -5.376772,-1.11596 -1.217392,-1.14133 -1.775349,-3.42388 -1.166637,-6.06158 0.608712,-2.637694 2.384029,-5.630372 4.286213,-8.521688 1.902184,-2.891317 3.931119,-5.681102 4.894882,-5.706465 z"
           id="path17" /><path
           style="opacity:1;fill:#434343;fill-opacity:1;stroke:#000000;stroke-width:0.476001;stroke-linecap:round;stroke-opacity:1"
           d="m 33.93461,126.05008 c -1.572456,1.57245 -4.057954,3.9565 -5.630415,6.59419 -1.572462,2.6377 -2.231865,5.52893 -2.637662,8.49634 -0.405796,2.96741 -0.557966,6.01081 -0.963767,7.45645 -0.405802,1.44564 -1.065207,1.29347 -1.876807,0.71013 -0.8116,-0.58334 -1.775341,-1.5978 -2.409399,-3.34782 -0.634059,-1.75001 -0.938399,-4.23546 -0.456504,-6.99997 0.481896,-2.76451 1.749979,-5.80791 3.931157,-8.49632 2.181179,-2.68842 5.275301,-5.02169 7.583276,-6.21372 2.307975,-1.19202 3.829677,-1.24275 4.260828,-0.88767 0.431151,0.35508 -0.228252,1.11593 -1.800707,2.68839 z"
           id="path18" /><path
           style="opacity:1;fill:#434343;fill-opacity:1;stroke:#000000;stroke-width:0.476001;stroke-linecap:round;stroke-opacity:1"
           d="m 47.351208,127.34355 c -2.460131,2.15578 -5.960115,5.96011 -7.710106,9.02896 -1.749991,3.06885 -1.749991,5.40213 -1.318826,7.68475 0.431165,2.28261 1.293463,4.51444 2.028974,5.93473 0.735511,1.42029 1.34419,2.02897 1.648535,1.8007 0.304346,-0.22827 0.304346,-1.29346 0.431159,-3.779 0.126814,-2.48553 0.38043,-6.39123 1.54711,-9.78979 1.166679,-3.39856 3.246342,-6.2898 4.84417,-8.54705 1.597828,-2.25725 2.713738,-3.88039 2.561553,-4.43836 -0.152185,-0.55796 -1.572437,-0.0507 -4.032569,2.10506 z"
           id="path19" /><path
           style="opacity:1;fill:#ffffff;fill-opacity:1;stroke:#000000;stroke-width:0.476001;stroke-linecap:round;stroke-opacity:1"
           id="path20"
           d="m 107.16484,61.291496 a 2.0081596,3.9419432 0 0 1 -2.67735,1.824975 2.0081596,3.9419432 0 0 1 -0.94061,-5.248046 2.0081596,3.9419432 0 0 1 2.66967,-1.867768 2.0081596,3.9419432 0 0 1 0.96239,5.232815"
           transform="rotate(30.218614)" /></g></g></g></svg>
