<?xml version="1.0" encoding="UTF-8" standalone="no"?>
<!-- Created with Inkscape (http://www.inkscape.org/) -->

<svg
   width="65.052605mm"
   height="59.967125mm"
   viewBox="0 0 65.052605 59.967125"
   version="1.1"
   id="svg1"
   xml:space="preserve"
   xmlns="http://www.w3.org/2000/svg"
   xmlns:svg="http://www.w3.org/2000/svg"><defs
     id="defs1" /><g
     id="layer1"
     transform="translate(-104.31636,-149.07824)"><g
       id="g25"><path
         style="opacity:1;fill:#0b0505;fill-opacity:1;stroke:#000000;stroke-width:0.476001;stroke-linecap:round;stroke-opacity:1"
         d="m 121.85763,171.8548 c 0.96148,-1.04509 0.87788,-2.80085 1.88119,-4.76564 1.00331,-1.96479 3.09345,-4.13854 6.01974,-5.43446 2.92629,-1.29591 6.68855,-1.71394 9.90745,-1.75574 3.21891,-0.0418 5.89429,0.29262 7.73366,1.33773 1.83937,1.04511 2.84264,2.80082 3.21887,4.76562 0.37623,1.96479 0.12541,4.13854 -2.04842,5.97791 -2.17383,1.83938 -6.2705,3.34428 -8.94595,4.09674 -2.67544,0.75247 -3.92953,0.75247 -3.97132,1.42134 -0.0418,0.66887 1.12869,2.00656 3.51153,2.67542 2.38284,0.66886 5.97789,0.66886 9.36402,-0.20903 3.38612,-0.8779 6.56313,-2.63362 8.56972,-4.30578 2.00658,-1.67216 2.84264,-3.26067 3.17707,-5.10005 0.33442,-1.83938 0.16721,-3.92952 -1.21233,-6.14514 -1.37955,-2.21561 -3.97133,-4.55657 -5.47626,-5.9361 -1.50494,-1.37952 -1.92297,-1.79755 -0.87785,-1.75574 1.04512,0.0418 3.55329,0.54345 5.97792,1.79758 2.42464,1.25413 4.76559,3.26066 6.52136,5.26725 1.75576,2.0066 2.92624,4.01313 3.51149,6.18695 0.58525,2.17381 0.58525,4.51477 -0.25084,6.81399 -0.83609,2.29922 -2.5082,4.55657 -5.22547,6.10332 -2.71728,1.54674 -6.47953,2.3828 -10.57633,2.96805 -4.0968,0.58526 -8.5279,0.91968 -10.99432,1.08689 -2.46642,0.16722 -2.96806,0.16722 -2.71723,1.54677 0.25084,1.37954 1.2541,4.13853 1.79755,7.06481 0.54345,2.92629 0.62705,6.0197 0.50164,8.27711 -0.12541,2.25741 -0.45983,3.67871 -1.21231,4.34757 -0.75248,0.66885 -1.92296,0.58525 -2.92625,-0.66889 -1.0033,-1.25413 -1.83935,-3.67869 -2.59183,-6.68859 -0.75247,-3.0099 -1.42131,-6.60494 -3.05168,-8.36069 -1.63037,-1.75576 -4.22215,-1.67215 -6.39595,-1.63034 -2.17381,0.0418 -3.92953,0.0418 -4.97462,1.42135 -1.0451,1.37954 -1.37952,4.13853 -1.79756,6.85579 -0.41804,2.71727 -0.91968,5.39265 -1.79756,7.19021 -0.87789,1.79757 -2.13198,2.71723 -3.59512,2.46639 -1.46315,-0.25083 -3.13526,-1.67213 -3.97134,-3.55331 -0.83607,-1.88119 -0.83607,-4.22215 0.0418,-7.60829 0.8779,-3.38614 2.63362,-7.81724 3.51149,-10.20005 0.87788,-2.38281 0.87788,-2.71723 0.62705,-3.34429 -0.25082,-0.62707 -0.75246,-1.54673 -1.58854,-3.00988 -0.83609,-1.46315 -2.00656,-3.46968 -3.26069,-5.89432 -1.25412,-2.42464 -2.59181,-5.26723 -3.26067,-7.81727 -0.66886,-2.55005 -0.66886,-4.80741 0.41806,-7.44107 1.08692,-2.63366 3.26067,-5.64346 5.05824,-7.60824 1.79757,-1.96478 3.21886,-2.88444 4.05494,-2.96804 0.83607,-0.0836 1.08689,0.66885 0.16719,1.88117 -0.9197,1.21233 -3.00984,2.88443 -4.18035,4.68201 -1.17051,1.79758 -1.42132,3.72051 -1.2959,6.01973 0.12541,2.29923 0.62705,4.97461 1.96478,6.9812 1.33774,2.00659 3.51149,3.34428 5.60169,3.84592 2.0902,0.50164 4.09674,0.16722 5.05822,-0.87787 z"
         id="path21" /><path
         style="opacity:1;fill:#ffd190;fill-opacity:1;stroke:#000000;stroke-width:0.476001;stroke-linecap:round;stroke-opacity:1"
         id="path22"
         d="m 133.24986,169.27898 a 3.8089027,1.9367303 0 0 1 -5.07816,0.89664 3.8089027,1.9367303 0 0 1 -1.78407,-2.57844 3.8089027,1.9367303 0 0 1 5.06361,-0.91766 3.8089027,1.9367303 0 0 1 1.82536,2.57096" /><path
         style="opacity:1;fill:#ffd190;fill-opacity:1;stroke:#000000;stroke-width:0.476001;stroke-linecap:round;stroke-opacity:1"
         id="path23"
         d="m 148.29179,169.53721 a 3.8089027,1.9367303 0 0 1 -5.07816,0.89663 3.8089027,1.9367303 0 0 1 -1.78407,-2.57843 3.8089027,1.9367303 0 0 1 5.06361,-0.91766 3.8089027,1.9367303 0 0 1 1.82536,2.57095" /><path
         style="opacity:1;fill:#0b0505;fill-opacity:1;stroke:#000000;stroke-width:0.497033;stroke-linecap:round;stroke-opacity:1"
         id="path24"
         d="m 130.43703,168.00991 a 0.97744739,0.87633216 0 0 1 -1.30317,0.40571 0.97744739,0.87633216 0 0 1 -0.45783,-1.16669 0.97744739,0.87633216 0 0 1 1.29943,-0.41522 0.97744739,0.87633216 0 0 1 0.46843,1.16331" /><path
         style="opacity:1;fill:#0b0505;fill-opacity:1;stroke:#000000;stroke-width:0.497033;stroke-linecap:round;stroke-opacity:1"
         id="path25"
         d="m 146.24319,168.32185 a 0.97744739,0.87633216 0 0 1 -1.30316,0.40571 0.97744739,0.87633216 0 0 1 -0.45783,-1.16669 0.97744739,0.87633216 0 0 1 1.29943,-0.41522 0.97744739,0.87633216 0 0 1 0.46843,1.1633" /></g></g></svg>
