<?xml version="1.0" encoding="UTF-8" standalone="no"?>
<!-- Created with Inkscape (http://www.inkscape.org/) -->

<svg
   width="100.06452mm"
   height="61.189339mm"
   viewBox="0 0 100.06452 61.189339"
   version="1.1"
   id="svg1"
   xml:space="preserve"
   xmlns="http://www.w3.org/2000/svg"
   xmlns:svg="http://www.w3.org/2000/svg"><defs
     id="defs1" /><g
     id="layer1"
     transform="translate(-36.33783,-153.15866)"><g
       id="g37"><path
         style="opacity:1;fill:#f8eae3;fill-opacity:1;stroke:#000000;stroke-width:0.476001;stroke-linecap:round;stroke-opacity:1"
         d="m 67.342089,212.79692 c -3.805405,-1.18919 -8.969884,-3.2278 -12.605426,-4.89268 -3.635543,-1.66487 -5.742069,-2.95597 -7.237057,-5.33438 -1.494988,-2.37841 -2.378367,-5.84398 -3.227797,-9.10579 -0.84943,-3.26181 -1.664858,-6.31966 -2.955996,-8.42623 -1.291138,-2.10658 -3.057898,-3.26177 -3.907317,-4.89268 -0.849419,-1.63091 -0.781467,-3.73743 -0.407715,-8.22244 0.373752,-4.48501 1.053275,-11.3482 1.494974,-14.98372 0.441699,-3.63552 0.64556,-4.04324 1.766815,-3.12584 1.121255,0.91739 3.159827,3.15982 6.013918,5.23243 2.85409,2.0726 6.523517,3.97527 9.683388,4.68878 3.159871,0.7135 5.810012,0.23784 9.241714,-0.16989 3.431702,-0.40772 7.644747,-0.74748 11.823938,-1.08726 4.179192,-0.33977 8.324284,-0.67953 12.503477,-0.16986 4.179193,0.50966 8.392236,1.86871 11.110395,3.39768 2.71816,1.52898 3.9413,3.22779 6.59154,3.97528 2.65023,0.74749 6.72737,0.54363 10.80463,0.20386 4.07726,-0.33978 8.1544,-0.81544 11.55211,-1.46101 3.39771,-0.64557 6.1158,-1.461 6.52351,-1.12121 0.4077,0.33978 -1.49497,1.83473 -2.95598,3.77143 -1.46101,1.9367 -2.4803,4.31504 -3.02393,7.20311 -0.54363,2.88806 -0.61158,6.28567 -0.71352,8.52815 -0.10193,2.24249 -0.23783,3.32972 -0.91738,4.62086 -0.67955,1.29113 -1.90269,2.78608 -3.49962,3.49959 -1.59693,0.71352 -3.56755,0.64556 -4.34901,1.63091 -0.78147,0.98535 -0.37375,3.02392 0.13591,4.79073 0.50966,1.76682 1.12122,3.26176 1.76679,4.41699 0.64557,1.15522 1.32509,1.97064 -0.10197,2.88803 -1.42706,0.91738 -4.96058,1.93667 -13.0472,2.95598 -8.08661,1.01932 -20.725737,2.0386 -28.26862,2.37837 -7.542883,0.33976 -9.989165,0 -13.794571,-1.18919 z"
         id="path26" /><path
         style="opacity:1;fill:#da9a9c;fill-opacity:1;stroke:#000000;stroke-width:0.476001;stroke-linecap:round;stroke-opacity:1"
         d="m 39.110311,158.14758 c 0.422357,0.8616 1.131919,3.56469 2.804482,5.6427 1.672563,2.07802 4.308021,3.5309 6.740823,4.1053 2.432803,0.57441 4.662807,0.27032 5.659568,0.70958 0.996762,0.43926 0.760246,1.62184 -0.219641,2.9565 -0.979887,1.33467 -2.703073,2.82134 -5.017622,4.84868 -2.31455,2.02735 -5.22031,4.59523 -7.230742,5.43993 -2.010433,0.84471 -3.125436,-0.0338 -3.902577,-0.92918 -0.777141,-0.89541 -1.216383,-1.80768 -1.334642,-3.44646 -0.11826,-1.63877 0.08447,-4.00392 0.439253,-7.16319 0.354785,-3.15928 0.861604,-7.11247 1.182597,-9.57904 0.320992,-2.46658 0.456144,-3.44643 0.878501,-2.58482 z"
         id="path27" /><path
         style="opacity:1;fill:#da9a9c;fill-opacity:1;stroke:#000000;stroke-width:0.476001;stroke-linecap:round;stroke-opacity:1"
         d="m 132.94127,170.21011 c -1.53738,0.86161 -4.95003,3.05787 -8.34581,4.7811 -3.39579,1.72323 -6.77459,2.97338 -8.98776,3.75052 -2.21316,0.77714 -3.26058,1.08123 -3.1761,2.38212 0.0845,1.30088 1.30085,3.59847 2.75378,5.91301 1.45292,2.31454 3.14232,4.64591 4.17288,6.06504 1.03056,1.41912 1.40222,1.92594 2.21316,2.12867 0.81094,0.20273 2.06109,0.10137 3.2437,-0.47305 1.18262,-0.57442 2.29762,-1.62184 3.00718,-2.39899 0.70957,-0.77714 1.01366,-1.28396 1.16571,-2.078 0.15205,-0.79404 0.15205,-1.87526 0.25342,-3.37887 0.10136,-1.50361 0.30409,-3.42952 0.50682,-5.45686 0.20274,-2.02734 0.40547,-4.15598 1.08125,-6.03126 0.67578,-1.87529 1.82457,-3.49711 2.56792,-4.54456 0.74336,-1.04745 1.08124,-1.52048 -0.45615,-0.65887 z"
         id="path28" /><path
         style="opacity:1;fill:#000000;fill-opacity:1;stroke:#000000;stroke-width:0.476001;stroke-linecap:round;stroke-opacity:1"
         id="path29"
         d="m 69.161599,182.57564 a 10.492303,3.9193039 0 0 1 -13.988687,1.8145 10.492303,3.9193039 0 0 1 -4.914543,-5.21791 10.492303,3.9193039 0 0 1 13.948612,-1.85704 10.492303,3.9193039 0 0 1 5.028283,5.20276" /><path
         style="opacity:1;fill:#000000;fill-opacity:1;stroke:#000000;stroke-width:0.476001;stroke-linecap:round;stroke-opacity:1"
         id="path30"
         d="m 99.617856,183.96374 a 10.492303,3.9193039 0 0 1 -13.988687,1.81449 10.492303,3.9193039 0 0 1 -4.914543,-5.21791 10.492303,3.9193039 0 0 1 13.948612,-1.85704 10.492303,3.9193039 0 0 1 5.028283,5.20276" /><path
         style="opacity:1;fill:#ffffff;fill-opacity:1;stroke:#000000;stroke-width:0.683758;stroke-linecap:round;stroke-opacity:1"
         id="path31"
         d="m 61.869056,181.88697 a 3.3601673,1.4662714 0 0 1 -4.479887,0.67883 3.3601673,1.4662714 0 0 1 -1.573886,-1.9521 3.3601673,1.4662714 0 0 1 4.467053,-0.69475 3.3601673,1.4662714 0 0 1 1.610311,1.94644" /><path
         style="opacity:1;fill:#ffffff;fill-opacity:1;stroke:#000000;stroke-width:0.71086;stroke-linecap:round;stroke-opacity:1"
         id="path32"
         d="m 94.871827,183.12125 a 3.6656315,1.4527458 0 0 1 -4.887142,0.67257 3.6656315,1.4527458 0 0 1 -1.716963,-1.93409 3.6656315,1.4527458 0 0 1 4.873141,-0.68834 3.6656315,1.4527458 0 0 1 1.7567,1.92848" /><path
         style="opacity:1;fill:#bcdbeb;fill-opacity:1;stroke:#000000;stroke-width:0.476001;stroke-linecap:round;stroke-opacity:1"
         d="m 49.1347,182.96522 c 0.220775,0.50697 0.662325,1.5209 1.030286,2.49395 0.367962,0.97306 0.662322,1.9052 0.809505,3.0745 0.147183,1.16931 0.147183,2.5757 0.466087,3.54057 0.318903,0.96487 0.956684,1.48818 1.69261,1.00573 0.735926,-0.48245 1.569945,-1.9706 2.150506,-3.29527 0.580561,-1.32466 0.907629,-2.48575 1.512725,-3.04177 0.605095,-0.55603 1.488176,-0.50697 2.08509,0.24531 0.596914,0.75229 0.907628,2.20774 1.234704,3.46699 0.327077,1.25924 0.670497,2.32221 1.275593,2.46939 0.605097,0.14718 1.471823,-0.62143 1.95426,-1.87251 0.482436,-1.25108 0.580556,-2.98453 1.161123,-3.94122 0.580568,-0.9567 1.643537,-1.13659 2.403987,-1.66809 0.760451,-0.5315 1.218349,-1.41459 1.079332,-1.81525 -0.139016,-0.40067 -0.874914,-0.3189 -2.027864,-0.0818 -1.15295,0.23714 -2.722876,0.62962 -4.34191,0.80951 -1.619034,0.1799 -3.287076,0.1472 -4.955171,-0.0654 -1.668094,-0.21259 -3.336138,-0.60507 -4.63627,-1.03027 -1.300131,-0.4252 -2.23227,-0.8831 -2.690173,-1.0221 -0.457904,-0.13901 -0.44155,0.0409 -0.433374,0.13083 0.0082,0.0899 0.0082,0.0899 0.228954,0.59687 z"
         id="path33" /><path
         style="opacity:1;fill:#bcdbeb;fill-opacity:1;stroke:#000000;stroke-width:0.476001;stroke-linecap:round;stroke-opacity:1"
         d="m 79.577661,183.97922 c -0.377144,0.39649 -1.015391,1.13144 -0.889666,1.81805 0.125725,0.6866 1.015382,1.32483 1.479561,1.85671 0.46418,0.53187 0.502861,0.95736 0.580226,2.23388 0.07737,1.27651 0.193406,3.40395 0.377146,5.1543 0.18374,1.75036 0.435166,3.12353 0.976715,3.38462 0.54155,0.26109 1.373185,-0.58988 1.905061,-1.83738 0.531876,-1.2475 0.76396,-2.89143 1.353863,-4.22595 0.589903,-1.33453 1.537584,-2.35957 2.649691,-2.8721 1.112107,-0.51253 2.388574,-0.51253 3.046161,0.44485 0.657588,0.95739 0.696268,2.87209 0.647914,4.38068 -0.04835,1.5086 -0.183736,2.611 -0.174064,3.42332 0.0097,0.81231 0.164397,1.33451 0.06769,2.33057 -0.09671,0.99607 -0.444836,2.46594 -0.618903,3.67475 -0.174067,1.20881 -0.174067,2.15648 0.493203,2.78506 0.66727,0.62858 2.001761,0.93803 2.814075,0.39647 0.812315,-0.54155 1.102421,-1.93406 1.228136,-3.26859 0.125715,-1.33453 0.08703,-2.61099 0.09671,-4.01321 0.0097,-1.40223 0.06769,-2.93012 0.792985,-4.74818 0.725294,-1.81805 2.1178,-3.92615 3.403975,-5.46376 1.286176,-1.5376 2.465946,-2.50462 2.707696,-3.27826 0.24175,-0.77363 -0.4545,-1.35384 -1.18946,-1.64396 -0.73496,-0.29011 -1.508575,-0.29011 -2.146826,-0.14505 -0.638251,0.14506 -1.141103,0.43517 -2.040461,0.72528 -0.899359,0.29012 -2.195167,0.58022 -3.993882,0.72528 -1.798716,0.14505 -4.100224,0.14505 -5.850577,0.029 -1.750354,-0.11604 -2.949458,-0.34812 -4.042223,-0.76396 -1.092764,-0.41583 -2.079123,-1.01538 -2.630332,-1.28616 -0.551208,-0.27077 -0.667263,-0.21274 -1.044408,0.18374 z"
         id="path34" /><path
         style="opacity:1;fill:#da9a9c;fill-opacity:1;stroke:#000000;stroke-width:0.476001;stroke-linecap:round;stroke-opacity:1"
         d="m 71.406178,189.30761 c -0.754288,-0.17407 -1.469898,-0.9477 -1.895395,-1.61496 -0.425498,-0.66726 -0.560883,-1.22814 0.309472,-1.4699 0.870355,-0.24176 2.746372,-0.16439 3.568353,0.29012 0.821982,0.45452 0.589896,1.28616 0.07736,1.91474 -0.512539,0.62858 -1.305497,1.05406 -2.059786,0.88 z"
         id="path35" /><path
         style="opacity:1;fill:none;fill-opacity:1;stroke:#000000;stroke-width:0.476001;stroke-linecap:round;stroke-opacity:1"
         d="m 71.251455,189.79113 c -1.914739,4.39036 -3.829474,8.78071 -5.744213,13.17107"
         id="path36" /><path
         style="opacity:1;fill:none;fill-opacity:1;stroke:#000000;stroke-width:0.476001;stroke-linecap:round;stroke-opacity:1"
         d="m 71.599588,189.55904 c 0.676928,4.13893 1.353856,8.27786 2.030783,12.41678"
         id="path37" /></g></g></svg>
