<?xml version="1.0" encoding="UTF-8" standalone="no"?>
<!-- Created with Inkscape (http://www.inkscape.org/) -->

<svg
   width="46.857971mm"
   height="56.087551mm"
   viewBox="0 0 46.857971 56.087551"
   version="1.1"
   id="svg1"
   xml:space="preserve"
   xmlns="http://www.w3.org/2000/svg"
   xmlns:svg="http://www.w3.org/2000/svg"><defs
     id="defs1" /><g
     id="layer1"
     transform="translate(-50.798825,-107.92212)"><g
       id="g4"><path
         style="opacity:1;fill:#100f0e;fill-opacity:1;stroke:none;stroke-width:0.476001;stroke-linecap:round"
         d="m 63.080187,129.80736 c -0.679093,-2.61577 -2.03728,-7.8473 -2.955318,-11.72067 -0.918037,-3.87337 -1.395908,-6.38848 -1.481398,-7.92132 -0.08549,-1.53284 0.533708,-2.64357 0.921409,-2.10579 0.387701,0.53778 1.169538,1.62227 1.887818,3.28863 0.718279,1.66637 1.372958,3.91451 2.287068,6.16272 0.914111,2.24821 2.087592,4.49635 2.927578,6.75691 0.839986,2.26056 1.346435,4.53341 1.686134,5.79956 0.339699,1.26615 0.512632,1.52555 0.599102,1.02526 0.08647,-0.5003 0.08647,-1.76025 0.160586,-3.21788 0.07412,-1.45763 0.222346,-3.11285 0.358227,-5.03989 0.13588,-1.92704 0.259405,-4.12577 0.395286,-5.48457 0.135881,-1.3588 0.28411,-1.8776 0.586755,-2.21112 0.302645,-0.33353 0.759683,-0.48176 1.315559,-0.16676 0.555877,0.315 1.210557,1.09321 1.809666,2.13702 0.599108,1.04381 1.142616,2.35317 1.47614,3.12521 0.333525,0.77205 0.457051,1.00675 1.710869,1.22909 1.253818,0.22235 3.637836,0.43234 4.922513,0.46323 1.284678,0.0309 1.469965,-0.11735 1.846728,-0.84617 0.376762,-0.72882 0.944975,-2.03818 1.488497,-2.91522 0.543523,-0.87705 1.062321,-1.32173 1.364963,-0.76585 0.302641,0.55589 0.389107,2.11229 0.48793,3.37227 0.09882,1.25998 0.209995,2.22347 0.389111,3.30434 0.179116,1.08087 0.426164,2.27906 0.537339,3.47728 0.111174,1.19822 0.08647,2.3964 -0.123526,3.48344 -0.209998,1.08705 -0.605278,2.0629 -1.074683,2.88436 -0.469404,0.82145 -1.01291,1.48848 -1.290847,2.09377 -0.277936,0.60528 -0.29029,1.14879 0.444709,3.04496 0.734999,1.89617 2.217287,5.14485 3.749033,8.3751 1.531747,3.23026 3.112857,6.44189 4.379016,8.28862 1.266158,1.84672 2.217293,2.32847 2.834929,2.77934 0.617636,0.45088 0.901738,0.87086 0.93262,1.53792 0.03088,0.66705 -0.191462,1.58113 -0.790576,2.17406 -0.599115,0.59293 -1.574956,0.86468 -2.340827,0.88939 -0.765872,0.0247 -1.321729,-0.19764 -1.772609,-0.26558 -0.45088,-0.0679 -0.796741,0.0185 -1.056147,-0.21618 -0.259407,-0.2347 -0.432345,-0.79057 -0.574401,-1.33409 -0.142056,-0.54352 -0.253227,-1.07467 -1.822047,-3.18084 -1.56882,-2.10617 -4.595162,-5.78719 -6.256597,-7.45479 -1.661436,-1.66761 -1.957896,-1.32174 -2.550833,-0.83998 -0.592937,0.48176 -1.48231,1.09938 -2.557004,1.58114 -1.074694,0.48175 -2.33464,0.82762 -3.329037,1.00056 -0.994397,0.17294 -1.723189,0.17294 -1.927005,0.66088 -0.203817,0.48794 0.117345,1.46378 0.4694,2.73612 0.352055,1.27234 0.734982,2.8411 0.920271,3.8849 0.185289,1.04381 0.172936,1.56261 -0.06177,1.8529 -0.234708,0.29029 -0.691742,0.35205 -1.1735,0.71028 -0.481758,0.35823 -0.988209,1.01291 -1.896144,1.39584 -0.907934,0.38294 -2.217291,0.49411 -3.193158,0.22852 -0.975867,-0.26559 -1.618191,-0.90791 -1.822008,-1.54408 -0.203817,-0.63617 0.03088,-1.26614 0.142051,-2.34702 0.111174,-1.08087 0.09882,-2.61257 -0.24706,-4.48402 -0.345882,-1.87145 -1.025265,-4.08253 -1.544082,-5.28074 -0.518817,-1.19821 -0.877036,-1.3835 -1.389678,-1.21673 -0.512642,0.16676 -1.179673,0.68556 -2.081429,1.66143 -0.901756,0.97588 -2.038177,2.40876 -2.7114,3.46492 -0.673223,1.05616 -0.883215,1.73555 -1.105565,2.84112 -0.222349,1.10558 -0.457045,2.63728 -0.691748,3.59462 -0.234703,0.95733 -0.469401,1.34026 -0.889396,1.63673 -0.419996,0.29646 -1.025263,0.50645 -1.655256,0.48175 -0.629993,-0.0247 -1.284672,-0.28411 -1.778783,-0.66088 -0.494111,-0.37676 -0.827624,-0.87085 -1.012915,-1.2785 -0.185292,-0.40764 -0.222348,-0.7288 -0.01852,-1.27232 0.203824,-0.54353 0.64851,-1.30938 1.025268,-1.84055 0.376758,-0.53117 0.685569,-0.82762 1.074683,-2.30379 0.389115,-1.47617 0.858507,-4.13194 1.383502,-6.36162 0.524994,-2.22967 1.105558,-4.03312 1.754081,-5.66987 0.648524,-1.63674 1.364965,-3.10668 2.254365,-4.39136 0.889401,-1.28469 1.951711,-2.38406 2.736109,-3.14993 0.784399,-0.76587 1.290846,-1.1982 1.686136,-1.50085 0.39529,-0.30264 0.679394,-0.47557 0.812352,-0.75721 0.132958,-0.28163 0.114762,-0.67194 0.105663,-0.8671 -0.0091,-0.19516 -0.0091,-0.19516 -0.688193,-2.81092 z"
         id="path1" /><path
         style="opacity:0.693103;fill:#e7fffc;fill-opacity:1;stroke:none;stroke-width:0.536812;stroke-linecap:round"
         id="path2"
         d="m 78.461946,128.22124 a 1.6794392,2.1303997 0 0 1 -2.239084,0.98629 1.6794392,2.1303997 0 0 1 -0.786641,-2.83627 1.6794392,2.1303997 0 0 1 2.23267,-1.00943 1.6794392,2.1303997 0 0 1 0.804847,2.82805" /><path
         style="opacity:0.693103;fill:#e7fffc;fill-opacity:1;stroke:none;stroke-width:0.536812;stroke-linecap:round"
         id="path3"
         d="m 86.361536,128.96766 a 1.6794392,2.1303997 0 0 1 -2.239084,0.9863 1.6794392,2.1303997 0 0 1 -0.786641,-2.83627 1.6794392,2.1303997 0 0 1 2.23267,-1.00943 1.6794392,2.1303997 0 0 1 0.804846,2.82805" /><path
         style="opacity:1;fill:#846761;fill-opacity:1;stroke:none;stroke-width:0.476001;stroke-linecap:round"
         d="m 73.331202,123.64056 c -0.171484,-0.4555 -0.514457,-1.36652 -0.9003,-2.32845 -0.385844,-0.96193 -0.814547,-1.97474 -1.095892,-2.28556 -0.281345,-0.31081 -0.415313,0.0804 -0.506415,0.79581 -0.0911,0.71542 -0.139332,1.75503 -0.163448,2.61514 -0.02412,0.86011 -0.02412,1.54067 0.06699,1.90776 0.0911,0.36709 0.273298,0.42067 0.688621,0.43407 0.415322,0.0134 1.063736,-0.0134 1.473692,-0.0456 0.409956,-0.0322 0.581434,-0.0697 0.643064,-0.17685 0.06163,-0.10718 0.0134,-0.28402 -0.01071,-0.37244 -0.02412,-0.0884 -0.02412,-0.0884 -0.195599,-0.54391 z"
         id="path4"
         transform="translate(-0.04853514,-0.53388654)" /></g></g></svg>
