<?xml version="1.0" encoding="UTF-8" standalone="no"?>
<!-- Created with Inkscape (http://www.inkscape.org/) -->

<svg
   width="49.620201mm"
   height="56.498814mm"
   viewBox="0 0 49.620201 56.498814"
   version="1.1"
   id="svg1"
   xml:space="preserve"
   xmlns="http://www.w3.org/2000/svg"
   xmlns:svg="http://www.w3.org/2000/svg"><defs
     id="defs1" /><g
     id="layer1"
     transform="translate(-29.720772,-189.36552)"><g
       id="g48"
       transform="translate(-31.271679,-31.498285)"><path
         style="opacity:1;fill:#f8eae3;fill-opacity:1;stroke:#000000;stroke-width:0.476001;stroke-linecap:round;stroke-opacity:1"
         d="m 64.713988,276.37153 c -0.467975,-0.80225 -1.403925,-2.40674 -2.139312,-4.51263 -0.735387,-2.1059 -1.270204,-4.71313 -1.337053,-7.28701 -0.06685,-2.57388 0.334261,-5.11425 1.169939,-7.58785 0.835678,-2.47359 2.105866,-4.88026 2.841255,-6.38447 0.735389,-1.5042 0.935946,-2.10587 0.668525,-2.84127 -0.26742,-0.73539 -1.002794,-1.60447 -1.805042,-2.40672 -0.802247,-0.80224 -1.67132,-1.53761 -2.105868,-2.37329 -0.434547,-0.83567 -0.434547,-1.7716 0.03343,-2.87469 0.467981,-1.10309 1.403911,-2.37328 2.239586,-3.61008 0.835675,-1.2368 1.571044,-2.44013 3.097306,-4.91547 1.526263,-2.47534 3.843304,-6.2225 5.231897,-8.2367 1.388593,-2.01421 1.848671,-2.29537 2.206518,-2.15478 0.357847,0.14059 0.613445,0.7029 1.073539,1.67421 0.460094,0.97131 1.124649,2.35154 1.942591,3.05445 0.817942,0.70292 1.789212,0.72848 3.271734,0.77961 1.482523,0.0511 3.476189,0.1278 5.303773,0.35785 1.827583,0.23004 3.488973,0.61344 4.600854,0.80515 1.11188,0.1917 1.674196,0.1917 2.734967,-0.37064 1.06077,-0.56234 2.61992,-1.68697 3.936289,-2.61993 1.316368,-0.93296 2.38988,-1.6742 3.54011,-2.28765 1.15023,-0.61346 2.3771,-1.09909 3.13114,-1.32913 0.75403,-0.23004 1.03519,-0.20448 1.23967,0.16616 0.20449,0.37064 0.33229,1.08631 0.0511,2.23655 -0.28118,1.15023 -0.97129,2.73494 -1.98094,4.74145 -1.00965,2.00651 -2.33876,4.4347 -3.05445,6.3134 -0.71569,1.8787 -0.817929,3.20781 -0.639002,4.58808 0.178932,1.38028 0.639002,2.81163 1.009632,4.29414 0.37063,1.48252 0.65179,3.01611 0.92017,4.30692 0.26839,1.29081 0.52399,2.33876 0.52398,3.38675 0,1.04798 -0.2556,2.09593 0.0256,2.93943 0.28117,0.8435 1.09908,1.4825 2.01926,2.6583 0.92019,1.17579 1.94258,2.88829 2.96501,4.63919 1.02242,1.75091 2.04482,3.54011 2.58159,4.90759 0.53676,1.36749 0.58788,2.31319 -0.61348,3.24616 -1.20136,0.93297 -3.65511,1.85312 -9.879156,3.00335 -6.224047,1.15023 -16.217946,2.53046 -22.569214,3.31811 -6.351268,0.78766 -9.059596,0.9827 -10.413786,1.08022 -1.354191,0.0975 -1.354191,0.0975 -1.822166,-0.70476 z"
         id="path38" /><path
         style="opacity:1;fill:#da9a9c;fill-opacity:1;stroke:#000000;stroke-width:0.476001;stroke-linecap:round;stroke-opacity:1"
         d="m 73.401997,224.04815 c -0.36751,0.53456 -1.102535,1.60369 -1.653805,2.46679 -0.551269,0.8631 -0.918771,1.52015 -0.634777,1.84869 0.283994,0.32853 1.219458,0.32853 2.327572,0.32296 1.108115,-0.006 2.38881,-0.0167 2.901095,-0.32296 0.512285,-0.30627 0.256147,-0.90764 -0.300696,-1.76518 -0.556843,-0.85753 -1.414352,-1.97118 -1.843116,-2.52801 -0.428763,-0.55684 -0.428763,-0.55685 -0.796273,-0.0223 z"
         id="path39" /><path
         style="opacity:1;fill:#da9a9c;fill-opacity:1;stroke:#000000;stroke-width:0.476001;stroke-linecap:round;stroke-opacity:1"
         d="m 73.401997,224.04815 c -0.36751,0.53456 -1.102535,1.60369 -1.653805,2.46679 -0.551269,0.8631 -0.918771,1.52015 -0.634777,1.84869 0.283994,0.32853 1.219458,0.32853 2.327572,0.32296 1.108115,-0.006 2.38881,-0.0167 2.901095,-0.32296 0.512285,-0.30627 0.256147,-0.90764 -0.300696,-1.76518 -0.556843,-0.85753 -1.414352,-1.97118 -1.843116,-2.52801 -0.428763,-0.55684 -0.428763,-0.55685 -0.796273,-0.0223 z"
         id="path40"
         transform="rotate(34.050576,82.83661,268.87474)" /><path
         style="opacity:1;fill:#b3bdcc;fill-opacity:1;stroke:#000000;stroke-width:0.476001;stroke-linecap:round;stroke-opacity:1"
         d="m 67.900396,237.50386 c -0.745688,-0.47209 -1.314337,-1.14803 -1.228495,-1.62549 0.08584,-0.47746 0.826148,-0.75641 2.017118,-0.84761 1.19097,-0.0912 2.832517,0.005 4.130772,0.1073 1.298256,0.10193 2.253146,0.20922 3.057849,0.41844 0.804703,0.20922 1.459181,0.52037 1.695224,0.91199 0.236044,0.39162 0.05365,0.8637 -0.686688,1.24996 -0.740335,0.38626 -2.038553,0.68668 -3.197329,0.8047 -1.158776,0.11802 -2.17804,0.0537 -3.14905,-0.11266 -0.97101,-0.16631 -1.893714,-0.43454 -2.639401,-0.90663 z"
         id="path41" /><path
         style="opacity:1;fill:#b3bdcc;fill-opacity:1;stroke:#000000;stroke-width:0.476001;stroke-linecap:round;stroke-opacity:1"
         d="m 82.460062,236.36119 c 0.928084,-0.21995 2.784255,-0.65985 4.2971,-0.84761 1.512844,-0.18776 2.682312,-0.12339 3.873277,0.22532 1.190965,0.34871 2.40335,0.98172 3.090029,1.48064 0.686679,0.49892 0.847615,0.86371 0.697399,1.18559 -0.150216,0.32188 -0.611564,0.60084 -1.271425,0.92272 -0.659862,0.32188 -1.518188,0.68667 -2.521391,0.89053 -1.003202,0.20386 -2.151213,0.24677 -3.293895,0.0697 -1.142682,-0.17703 -2.279965,-0.57401 -3.261705,-1.06757 -0.981741,-0.49355 -1.80788,-1.08365 -2.237053,-1.48063 -0.429172,-0.39699 -0.461358,-0.60084 -0.445264,-0.76178 0.01609,-0.16094 0.08047,-0.27896 0.112658,-0.33798 0.03219,-0.059 0.03219,-0.059 0.96027,-0.27896 z"
         id="path42" /><path
         style="opacity:1;fill:#000000;fill-opacity:1;stroke:#000000;stroke-width:0.476001;stroke-linecap:round;stroke-opacity:1"
         id="path43"
         d="m 77.159381,237.29174 a 1.5450197,1.2553285 0 0 1 -2.059872,0.58117 1.5450197,1.2553285 0 0 1 -0.72368,-1.67126 1.5450197,1.2553285 0 0 1 2.053971,-0.5948 1.5450197,1.2553285 0 0 1 0.740428,1.66641" /><path
         style="opacity:1;fill:#000000;fill-opacity:1;stroke:#000000;stroke-width:0.476001;stroke-linecap:round;stroke-opacity:1"
         id="path44"
         d="m 93.421083,238.6981 a 1.1587647,1.6737714 0 0 1 -1.544903,0.77489 1.1587647,1.6737714 0 0 1 -0.54276,-2.22835 1.1587647,1.6737714 0 0 1 1.540478,-0.79306 1.1587647,1.6737714 0 0 1 0.555321,2.22188" /><path
         style="opacity:1;fill:#da9a9c;fill-opacity:1;stroke:#000000;stroke-width:0.476001;stroke-linecap:round;stroke-opacity:1"
         d="m 80.550247,242.79341 c -0.595477,-0.45063 -1.303611,-1.41627 -1.271415,-1.89909 0.0322,-0.48282 0.804689,-0.48282 1.630855,-0.42917 0.826166,0.0537 1.70595,0.16094 1.915166,0.61158 0.209216,0.45064 -0.252134,1.24459 -0.724229,1.67376 -0.472095,0.42918 -0.954901,0.49355 -1.550377,0.0429 z"
         id="path45" /><path
         style="opacity:1;fill:none;fill-opacity:1;stroke:#000000;stroke-width:0.476001;stroke-linecap:round;stroke-opacity:1"
         d="m 81.016971,243.30842 c -0.708133,2.25315 -1.416267,4.5063 -2.124403,6.75946"
         id="path46" /><path
         style="opacity:1;fill:none;fill-opacity:1;stroke:#000000;stroke-width:0.476001;stroke-linecap:round;stroke-opacity:1"
         d="m 81.33885,243.21185 c 1.115849,1.90982 2.231698,3.81964 3.347543,5.72945"
         id="path47" /><path
         style="opacity:1;fill:none;fill-opacity:1;stroke:#000000;stroke-width:0.476001;stroke-linecap:round;stroke-opacity:1"
         d="m 100.89642,250.62854 c -1.075,1.27976 -2.150004,2.55953 -4.223248,3.37858 -2.073244,0.81905 -5.144611,1.17738 -8.523219,1.30535 -3.378608,0.12798 -7.064248,0.0256 -10.749963,-0.0768"
         id="path48"
         transform="translate(0.08522722,1.6193172)" /></g></g></svg>
